<svg width="1080" height="1350" viewBox="0 0 1080 1350" fill="none" xmlns="http://www.w3.org/2000/svg">
<g clip-path="url(#clip0_16_4)">
<rect width="1080" height="1350" fill="white"/>
<g filter="url(#filter0_n_16_4)">
<rect width="1080" height="1350" fill="#4076FF"/>
</g>
<path d="M1041.17 -58.8863C1050.37 -60.616 1059.24 -54.554 1060.97 -45.3471L1062.29 -38.3234C1064.02 -29.1165 1057.96 -20.2509 1048.75 -18.5212L988.997 -7.29525C984.312 -6.41514 982.751 -0.488557 986.395 2.58443L1046.86 53.5765C1048.41 54.8843 1050.24 55.1167 1051.65 54.6843C1052.97 54.278 1053.98 53.3019 1054.26 51.6416C1056.1 40.7421 1056.25 28.7959 1054.65 15.7657C1053.56 6.83906 1059.3 -1.99452 1068.59 -3.74092L1079.79 -5.8455C1088.91 -7.55859 1098.08 -1.55958 1099.34 8.05967C1103.02 36.1509 1100.23 61.6688 1090.75 84.4421C1089.59 87.2338 1090.34 90.199 1092.27 91.835L1118.13 113.71C1125.73 120.141 1126.19 131.707 1119.11 138.713L1112.16 145.598C1105.81 151.885 1095.67 152.169 1088.98 146.247L1067.75 127.451C1065.57 125.523 1061.87 125.428 1059.12 127.768C1042.46 141.922 1021.69 151.232 997.03 155.865C968.731 161.181 944.252 159.289 924.018 149.532L923.983 149.515C903.392 139.412 890.847 122.153 886.39 98.4324C882.934 80.0343 885.65 64.0315 895.328 51.139C904.819 38.4762 917.433 30.6059 932.932 27.694C940.342 26.302 947.466 26.3594 954.247 27.8988L915.194 -6.38137C912.415 -8.82089 910.509 -12.1017 909.766 -15.7244L909.583 -16.6239C907.681 -25.9077 913.754 -34.9494 923.068 -36.6992L1041.17 -58.8863ZM957.848 56.6908C947.962 58.548 940.887 62.6909 936.066 68.8236L936.041 68.8551L936.015 68.8868C931.38 74.6109 929.647 81.7752 931.392 91.0592C933.497 102.264 939.19 109.53 948.543 113.643C958.287 117.929 971.739 118.826 989.446 115.5C1005.08 112.562 1017.81 107.003 1027.85 98.9978C1029.57 97.6285 1030 94.4714 1027.41 92.185L1006.53 73.7161L1006.52 73.7085L1006.51 73.7021C997.316 65.5101 989.073 60.3989 981.78 57.9549L981.753 57.9461L981.726 57.9362C974.696 55.5012 966.786 55.0117 957.848 56.6908Z" fill="white" stroke="#211414" stroke-width="11.3082"/>
<path d="M994.005 1196.52C1004.26 1194.59 1014.14 1201.34 1016.07 1211.6L1017.54 1219.42C1019.46 1229.68 1012.71 1239.56 1002.45 1241.49L935.882 1253.99C930.663 1254.97 928.925 1261.57 932.985 1265L1000.35 1321.81C1002.07 1323.26 1004.11 1323.52 1005.68 1323.04C1007.16 1322.59 1008.28 1321.5 1008.59 1319.65C1010.64 1307.51 1010.81 1294.2 1009.03 1279.68C1007.81 1269.74 1014.2 1259.9 1024.56 1257.95L1037.04 1255.61C1047.2 1253.7 1057.41 1260.38 1058.82 1271.1C1062.91 1302.39 1059.81 1330.82 1049.25 1356.19C1047.95 1359.3 1048.78 1362.61 1050.94 1364.43L1079.75 1388.8C1088.22 1395.96 1088.72 1408.85 1080.84 1416.66L1073.1 1424.33C1066.02 1431.33 1054.73 1431.65 1047.27 1425.05L1023.62 1404.11C1021.19 1401.96 1017.07 1401.86 1014 1404.46C995.45 1420.23 972.307 1430.6 944.832 1435.76C913.305 1441.69 886.033 1439.58 863.492 1428.71L863.473 1428.7L863.453 1428.69C840.513 1417.43 826.537 1398.21 821.572 1371.78C817.722 1351.28 820.746 1333.46 831.525 1319.1C842.1 1304.99 856.154 1296.22 873.423 1292.97C881.678 1291.42 889.616 1291.48 897.17 1293.2L853.661 1255.01C850.565 1252.29 848.442 1248.64 847.615 1244.6L847.409 1243.6C845.29 1233.26 852.057 1223.18 862.433 1221.23L994.005 1196.52ZM901.181 1325.28C890.167 1327.35 882.285 1331.96 876.913 1338.79L876.885 1338.83L876.857 1338.86C871.694 1345.24 869.763 1353.22 871.707 1363.57C874.052 1376.05 880.395 1384.14 890.814 1388.73C901.67 1393.5 916.656 1394.5 936.384 1390.79C953.805 1387.52 967.986 1381.33 979.17 1372.41C981.083 1370.88 981.564 1367.37 978.683 1364.82L955.414 1344.24L955.406 1344.24L955.397 1344.23C945.152 1335.1 935.968 1329.41 927.844 1326.69L927.813 1326.67L927.783 1326.66C919.951 1323.95 911.138 1323.41 901.181 1325.28Z" fill="white" stroke="#211414" stroke-width="12.5982"/>
<path d="M1099.61 542.297C1105.92 541.111 1112 545.268 1113.19 551.581L1114.09 556.397C1115.28 562.711 1111.12 568.791 1104.81 569.977L1063.83 577.675C1060.62 578.278 1059.55 582.342 1062.05 584.449L1103.51 619.416C1104.57 620.313 1105.82 620.473 1106.79 620.176C1107.7 619.898 1108.39 619.228 1108.59 618.09C1109.85 610.616 1109.95 602.424 1108.85 593.488C1108.1 587.367 1112.04 581.309 1118.41 580.112L1126.09 578.669C1132.35 577.494 1138.64 581.608 1139.5 588.204C1142.02 607.467 1140.11 624.965 1133.61 640.582C1132.81 642.496 1133.32 644.53 1134.65 645.652L1152.38 660.652C1157.6 665.062 1157.91 672.993 1153.06 677.798L1148.29 682.519C1143.93 686.83 1136.98 687.024 1132.39 682.963L1117.83 670.075C1116.34 668.753 1113.8 668.688 1111.92 670.292C1100.5 679.998 1086.25 686.382 1069.34 689.559C1049.93 693.205 1033.15 691.907 1019.27 685.217L1019.25 685.205C1005.13 678.278 996.527 666.441 993.471 650.175C991.101 637.559 992.963 626.586 999.599 617.745C1006.11 609.062 1014.76 603.664 1025.39 601.667C1030.47 600.713 1035.35 600.752 1040 601.808L1013.22 578.301C1011.32 576.629 1010.01 574.378 1009.5 571.894L1009.37 571.278C1008.07 564.912 1012.23 558.712 1018.62 557.512L1099.61 542.297ZM1042.47 621.552C1035.69 622.825 1030.84 625.666 1027.53 629.872L1027.52 629.894L1027.5 629.915C1024.32 633.84 1023.13 638.754 1024.33 645.12C1025.77 652.804 1029.68 657.786 1036.09 660.606C1042.77 663.545 1052 664.16 1064.14 661.879C1074.86 659.865 1083.59 656.053 1090.48 650.563C1091.65 649.624 1091.95 647.46 1090.18 645.892L1075.85 633.227L1075.85 633.222L1075.84 633.218C1069.54 627.6 1063.88 624.095 1058.88 622.419L1058.86 622.413L1058.85 622.406C1054.02 620.737 1048.6 620.4 1042.47 621.552Z" fill="white" stroke="#211414" stroke-width="7.75445"/>
<path d="M47.5675 546.164C53.881 544.978 59.9609 549.134 61.147 555.448L62.0518 560.264C63.2379 566.578 59.0811 572.658 52.7676 573.844L11.792 581.542C8.57962 582.145 7.50957 586.208 10.0082 588.316L51.4703 623.283C52.5336 624.18 53.7856 624.34 54.7531 624.043C55.6622 623.765 56.3538 623.095 56.5461 621.957C57.8079 614.482 57.9136 606.29 56.815 597.355C56.0623 591.234 59.9984 585.176 66.3728 583.978L74.0548 582.535C80.3078 581.361 86.5972 585.475 87.46 592.071C89.9796 611.334 88.0699 628.832 81.5706 644.448C80.7739 646.363 81.2844 648.396 82.6105 649.518L100.344 664.519C105.558 668.929 105.869 676.86 101.017 681.665L96.2488 686.386C91.895 690.697 84.9434 690.891 80.3554 686.83L65.7937 673.942C64.3 672.62 61.7647 672.555 59.8767 674.159C48.4569 683.865 34.2119 690.249 17.3006 693.426C-2.10483 697.071 -18.8915 695.774 -32.7662 689.084L-32.7902 689.072C-46.9106 682.144 -55.5126 670.308 -58.5685 654.042C-60.9386 641.426 -59.0766 630.453 -52.4402 621.612C-45.9317 612.928 -37.2817 607.531 -26.6529 605.534C-21.5721 604.579 -16.6863 604.619 -12.0368 605.675L-38.8169 582.168C-40.7227 580.495 -42.0295 578.245 -42.5385 575.761L-42.6652 575.145C-43.9696 568.778 -39.8048 562.578 -33.4181 561.378L47.5675 546.164ZM-9.56763 625.418C-16.3468 626.692 -21.1988 629.533 -24.5051 633.739L-24.5218 633.761L-24.5397 633.782C-27.7177 637.707 -28.9056 642.62 -27.7096 648.987C-26.266 656.671 -22.3619 661.653 -15.9488 664.473C-9.26674 667.412 -0.0422544 668.027 12.1005 665.746C22.8238 663.731 31.5525 659.919 38.4366 654.43C39.6141 653.491 39.9093 651.326 38.1363 649.759L23.8143 637.093L23.8084 637.089L23.8037 637.084C17.4974 631.467 11.8444 627.962 6.84348 626.286L6.82536 626.28L6.80628 626.273C1.98534 624.603 -3.43887 624.267 -9.56763 625.418Z" fill="white" stroke="#211414" stroke-width="7.75445"/>
<path d="M56.7191 -16.3367C64.4906 -17.7967 71.9747 -12.6806 73.4349 -4.9092L74.5488 1.02027C76.0087 8.7918 70.8917 16.2752 63.1202 17.7352L12.6812 27.211C8.72688 27.9539 7.40934 32.957 10.4851 35.5509L61.5237 78.5929C62.8325 79.6967 64.3728 79.893 65.5636 79.5281C66.6828 79.1851 67.5333 78.361 67.7699 76.9594C69.3231 67.7593 69.4547 57.6758 68.1023 46.6772C67.1758 39.1423 72.0204 31.6855 79.8669 30.2111L89.3235 28.4345C97.0204 26.9885 104.762 32.0523 105.824 40.1717C108.926 63.8836 106.575 85.4241 98.5748 104.647C97.5941 107.004 98.2228 109.506 99.8554 110.887L121.685 129.352C128.102 134.78 128.485 144.543 122.512 150.457L116.643 156.269C111.284 161.575 102.727 161.815 97.0789 156.816L79.1539 140.951C77.3151 139.323 74.1943 139.244 71.8702 141.219C57.8132 153.166 40.2786 161.024 19.4621 164.934C-4.42489 169.422 -25.0884 167.826 -42.1674 159.59L-42.1959 159.575C-59.5774 151.048 -70.167 136.478 -73.9286 116.456C-76.8462 100.926 -74.5534 87.4181 -66.3845 76.5355C-58.3728 65.847 -47.7253 59.2035 -34.6421 56.7456C-28.3882 55.5707 -22.3746 55.6187 -16.6515 56.918L-49.6156 27.9825C-51.9615 25.9233 -53.5708 23.1541 -54.1973 20.0962L-54.3528 19.3374C-55.9584 11.5009 -50.8313 3.86855 -42.9695 2.39156L56.7191 -16.3367ZM-13.6109 81.2217C-21.9557 82.7894 -27.9281 86.287 -31.9979 91.4636L-32.0187 91.4904L-32.0407 91.5164C-35.9527 96.3481 -37.4153 102.396 -35.9431 110.233C-34.1661 119.691 -29.3605 125.824 -21.4664 129.296C-13.2412 132.913 -1.88593 133.671 13.0611 130.862C26.2608 128.383 37.0053 123.691 45.4792 116.933C46.9287 115.777 47.2917 113.112 45.1092 111.182L27.4795 95.5929L27.4734 95.5871L27.4664 95.5815C19.7038 88.6666 12.7455 84.3516 6.58965 82.2886L6.56733 82.2809L6.54405 82.2733C0.609847 80.2179 -6.06691 79.8045 -13.6109 81.2217Z" fill="white" stroke="#211414" stroke-width="9.54528"/>
<g filter="url(#filter1_n_16_4)">
<mask id="path-7-inside-1_16_4" fill="white">
<path d="M883.933 157C889.136 157 893 161.798 893 167C893 194.614 915.386 217 943 217C948.202 217 953 220.864 953 226.066V1123.93C953 1129.14 948.202 1133 943 1133C915.386 1133 893 1155.39 893 1183C893 1188.2 889.136 1193 883.933 1193H196.067C190.864 1193 187 1188.2 187 1183C187 1155.39 164.614 1133 137 1133C131.798 1133 127 1129.14 127 1123.93V226.066C127 220.864 131.798 217 137 217C164.614 217 187 194.614 187 167C187 161.798 190.864 157 196.067 157H883.933Z"/>
</mask>
<path d="M883.933 157C889.136 157 893 161.798 893 167C893 194.614 915.386 217 943 217C948.202 217 953 220.864 953 226.066V1123.93C953 1129.14 948.202 1133 943 1133C915.386 1133 893 1155.39 893 1183C893 1188.2 889.136 1193 883.933 1193H196.067C190.864 1193 187 1188.2 187 1183C187 1155.39 164.614 1133 137 1133C131.798 1133 127 1129.14 127 1123.93V226.066C127 220.864 131.798 217 137 217C164.614 217 187 194.614 187 167C187 161.798 190.864 157 196.067 157H883.933Z" fill="#212121"/>
<path d="M893 167H878C878 202.899 907.102 232 943 232V217V202C923.67 202 908 186.33 908 167H893ZM953 226.066H938V1123.93H953H968V226.066H953ZM943 1133V1118C907.102 1118 878 1147.1 878 1183H893H908C908 1163.67 923.67 1148 943 1148V1133ZM883.933 1193V1178H196.067V1193V1208H883.933V1193ZM187 1183H202C202 1147.1 172.899 1118 137 1118V1133V1148C156.33 1148 172 1163.67 172 1183H187ZM127 1123.93H142V226.066H127H112V1123.93H127ZM137 217V232C172.899 232 202 202.899 202 167H187H172C172 186.33 156.33 202 137 202V217ZM196.067 157V172H883.933V157V142H196.067V157ZM127 226.066H142C142 228.342 140.892 230.027 139.919 230.878C139.036 231.649 138.03 232 137 232V217V202C125.479 202 112 210.742 112 226.066H127ZM893 1183H878C878 1181.97 878.352 1180.96 879.122 1180.08C879.973 1179.11 881.658 1178 883.933 1178V1193V1208C899.256 1208 908 1194.52 908 1183H893ZM187 167H202C202 168.031 201.648 169.037 200.878 169.919C200.027 170.893 198.342 172 196.067 172V157V142C180.744 142 172 155.477 172 167H187ZM953 1123.93H938C938 1121.66 939.107 1119.97 940.081 1119.12C940.963 1118.35 941.969 1118 943 1118V1133V1148C954.523 1148 968 1139.26 968 1123.93H953ZM196.067 1193V1178C198.342 1178 200.027 1179.11 200.878 1180.08C201.648 1180.96 202 1181.97 202 1183H187H172C172 1194.52 180.744 1208 196.067 1208V1193ZM943 217V232C941.97 232 940.964 231.649 940.081 230.878C939.108 230.027 938 228.342 938 226.066H953H968C968 210.742 954.521 202 943 202V217ZM137 1133V1118C138.031 1118 139.037 1118.35 139.919 1119.12C140.893 1119.97 142 1121.66 142 1123.93H127H112C112 1139.26 125.477 1148 137 1148V1133ZM893 167H908C908 155.477 899.256 142 883.933 142V157V172C881.658 172 879.973 170.893 879.122 169.919C878.352 169.037 878 168.031 878 167H893Z" fill="#F5F5F5" mask="url(#path-7-inside-1_16_4)"/>
</g>
<line x1="226.5" y1="746.5" x2="854.5" y2="746.5" stroke="#F5F5F5" stroke-width="15" stroke-linecap="round"/>
<path d="M348.08 391.203C334.3 407.739 316.324 416.006 294.151 416.006C284.129 416.006 274.796 414.19 266.153 410.557C257.509 406.924 249.993 401.976 243.604 395.713C237.34 389.324 232.392 381.87 228.759 373.352C225.127 364.833 223.31 355.626 223.31 345.73C223.31 335.833 225.127 326.626 228.759 318.107C232.392 309.589 237.34 302.198 243.604 295.935C249.993 289.546 257.509 284.535 266.153 280.902C274.796 277.269 284.129 275.453 294.151 275.453C305.175 275.453 314.695 277.332 322.712 281.09C330.855 284.848 338.246 290.297 344.885 297.438L324.404 317.356C320.896 313.347 316.699 310.028 311.814 307.397C306.928 304.641 301.103 303.263 294.339 303.263C288.451 303.263 282.939 304.265 277.803 306.269C272.792 308.274 268.408 311.155 264.649 314.913C260.891 318.671 257.947 323.181 255.818 328.442C253.688 333.578 252.623 339.341 252.623 345.73C252.623 352.118 253.688 357.944 255.818 363.205C257.947 368.341 260.891 372.788 264.649 376.546C268.408 380.304 272.792 383.186 277.803 385.19C282.939 387.194 288.451 388.196 294.339 388.196C301.479 388.196 307.68 386.756 312.941 383.875C318.203 380.993 322.963 376.859 327.222 371.473L348.08 391.203ZM362.794 278.459H392.107V385.19H448.479V413H362.794V278.459ZM460.835 278.459H490.148V413H460.835V278.459ZM627.891 391.203C614.111 407.739 596.135 416.006 573.962 416.006C563.94 416.006 554.607 414.19 545.964 410.557C537.32 406.924 529.804 401.976 523.415 395.713C517.152 389.324 512.203 381.87 508.571 373.352C504.938 364.833 503.121 355.626 503.121 345.73C503.121 335.833 504.938 326.626 508.571 318.107C512.203 309.589 517.152 302.198 523.415 295.935C529.804 289.546 537.32 284.535 545.964 280.902C554.607 277.269 563.94 275.453 573.962 275.453C584.986 275.453 594.506 277.332 602.524 281.09C610.666 284.848 618.057 290.297 624.696 297.438L604.215 317.356C600.707 313.347 596.511 310.028 591.625 307.397C586.739 304.641 580.914 303.263 574.15 303.263C568.262 303.263 562.75 304.265 557.614 306.269C552.603 308.274 548.219 311.155 544.461 314.913C540.702 318.671 537.759 323.181 535.629 328.442C533.499 333.578 532.435 339.341 532.435 345.73C532.435 352.118 533.499 357.944 535.629 363.205C537.759 368.341 540.702 372.788 544.461 376.546C548.219 380.304 552.603 383.186 557.614 385.19C562.75 387.194 568.262 388.196 574.15 388.196C581.29 388.196 587.491 386.756 592.752 383.875C598.014 380.993 602.774 376.859 607.033 371.473L627.891 391.203ZM642.605 278.459H671.918V330.321H673.797L718.143 278.459H752.906V280.338L704.99 335.019L758.731 411.121V413H723.028L684.696 358.319L671.918 373.164V413H642.605V278.459ZM809.725 416.006C797.198 416.006 786.362 412.687 777.217 406.047C768.198 399.283 761.809 389.637 758.051 377.11L785.673 366.211C787.302 372.6 789.995 377.862 793.753 381.996C797.511 386.129 802.835 388.196 809.725 388.196C811.98 388.196 814.11 387.946 816.114 387.445C818.244 386.944 820.06 386.192 821.563 385.19C823.192 384.062 824.507 382.684 825.509 381.056C826.511 379.427 827.013 377.548 827.013 375.419C827.013 373.289 826.574 371.348 825.697 369.594C824.946 367.715 823.63 366.024 821.751 364.52C819.872 362.892 817.367 361.326 814.235 359.823C811.103 358.194 807.157 356.503 802.397 354.749L794.129 351.743C790.621 350.49 786.989 348.799 783.23 346.669C779.598 344.414 776.278 341.721 773.271 338.589C770.265 335.457 767.822 331.887 765.943 327.879C764.064 323.745 763.124 319.172 763.124 314.161C763.124 308.775 764.189 303.701 766.319 298.941C768.448 294.181 771.455 290.109 775.338 286.727C779.222 283.22 783.919 280.464 789.431 278.459C794.943 276.455 801.019 275.453 807.658 275.453C814.673 275.453 820.686 276.392 825.697 278.271C830.708 280.025 834.967 282.343 838.475 285.224C841.982 287.98 844.738 291.112 846.743 294.619C848.872 298.127 850.501 301.509 851.628 304.766L826.261 315.477C824.883 311.468 822.691 308.274 819.684 305.894C816.678 303.388 812.794 302.135 808.034 302.135C803.023 302.135 799.015 303.2 796.008 305.33C793.127 307.334 791.686 309.965 791.686 313.222C791.686 316.604 793.189 319.611 796.196 322.241C799.202 324.872 804.526 327.503 812.168 330.133L820.436 332.952C831.835 336.835 840.667 342.034 846.931 348.548C853.194 355.062 856.326 363.831 856.326 374.855C856.326 381.87 854.885 387.946 852.004 393.082C849.248 398.218 845.615 402.477 841.105 405.86C836.721 409.242 831.71 411.747 826.073 413.376C820.561 415.13 815.112 416.006 809.725 416.006Z" fill="#F5F5F5"/>
<path d="M230.458 558.136H260.586L300.495 626.608H302.452L342.361 558.136H372.489V698.211H342.361V636.194L344.318 612.718H342.361L310.473 668.474H292.474L260.586 612.718H258.629L260.586 636.194V698.211H230.458V558.136ZM435.507 558.136H470.721L523.151 698.211H489.502L478.742 666.909H427.485L416.726 698.211H383.076L435.507 558.136ZM468.96 639.129L458.787 609.784L454.092 592.568H452.136L447.44 609.784L437.267 639.129H468.96ZM596.848 620.348H665.907C666.298 621.913 666.624 623.935 666.885 626.413C667.276 628.891 667.472 631.238 667.472 633.455C667.472 643.368 666.037 652.171 663.168 659.866C660.299 667.561 656.125 674.343 650.647 680.212C644.387 686.864 636.822 692.081 627.954 695.863C619.085 699.515 608.977 701.341 597.63 701.341C587.457 701.341 577.806 699.515 568.676 695.863C559.677 692.211 551.786 687.19 545.004 680.799C538.222 674.278 532.875 666.583 528.962 657.714C525.049 648.715 523.093 638.868 523.093 628.173C523.093 617.479 525.049 607.697 528.962 598.828C532.875 589.829 538.222 582.134 545.004 575.743C551.786 569.222 559.677 564.135 568.676 560.483C577.806 556.832 587.457 555.006 597.63 555.006C609.499 555.006 619.802 557.027 628.54 561.07C637.409 565.114 645.169 570.657 651.821 577.699L631.084 598.045C626.519 593.481 621.628 590.024 616.411 587.677C611.325 585.199 604.934 583.96 597.239 583.96C591.239 583.96 585.566 585.068 580.219 587.286C575.002 589.372 570.372 592.372 566.328 596.285C562.416 600.067 559.286 604.697 556.938 610.175C554.721 615.522 553.612 621.522 553.612 628.173C553.612 634.825 554.721 640.89 556.938 646.367C559.286 651.715 562.481 656.345 566.524 660.257C570.567 664.04 575.262 667.039 580.61 669.257C585.957 671.343 591.696 672.387 597.826 672.387C609.825 672.387 619.411 669.191 626.584 662.801C628.801 660.844 630.823 658.432 632.649 655.562C634.605 652.562 636.17 649.302 637.344 645.78H596.848V620.348ZM683.598 558.136H714.117V698.211H683.598V558.136ZM857.525 675.517C843.179 692.733 824.463 701.341 801.378 701.341C790.944 701.341 781.228 699.45 772.228 695.667C763.229 691.885 755.404 686.733 748.752 680.212C742.231 673.561 737.079 665.8 733.297 656.932C729.515 648.063 727.624 638.477 727.624 628.173C727.624 617.87 729.515 608.284 733.297 599.415C737.079 590.546 742.231 582.851 748.752 576.33C755.404 569.678 763.229 564.461 772.228 560.679C781.228 556.897 790.944 555.006 801.378 555.006C812.855 555.006 822.768 556.962 831.115 560.875C839.592 564.787 847.287 570.461 854.2 577.895L832.875 598.632C829.223 594.459 824.854 591.003 819.768 588.264C814.681 585.394 808.617 583.96 801.574 583.96C795.444 583.96 789.705 585.003 784.358 587.09C779.141 589.177 774.576 592.176 770.663 596.089C766.751 600.002 763.686 604.697 761.468 610.175C759.251 615.522 758.143 621.522 758.143 628.173C758.143 634.825 759.251 640.89 761.468 646.367C763.686 651.715 766.751 656.345 770.663 660.257C774.576 664.17 779.141 667.17 784.358 669.257C789.705 671.343 795.444 672.387 801.574 672.387C809.008 672.387 815.464 670.887 820.942 667.887C826.419 664.887 831.375 660.584 835.81 654.975L857.525 675.517Z" fill="#F5F5F5"/>
<path d="M228.331 430.129H291.252V439.629H238.298V482.46H286.269V491.804H238.298V541.643H228.331V430.129ZM318.453 439.629V481.214H366.424V490.558H318.453V532.143H371.407V541.643H308.486V430.129H371.407V439.629H318.453ZM402.107 439.629V481.214H450.077V490.558H402.107V532.143H455.061V541.643H392.139V430.129H455.061V439.629H402.107ZM475.792 430.129H485.76V532.143H536.222V541.643H475.792V430.129ZM588.952 430.129H598.92V532.143H649.382V541.643H588.952V430.129ZM665.457 430.129H675.425V541.643H665.457V430.129ZM699.374 430.129H709.342V492.272H709.965L763.542 430.129H776.158V430.752L735.352 477.943L779.74 541.02V541.643H767.747L728.499 485.73L709.342 507.846V541.643H699.374V430.129ZM801.969 439.629V481.214H849.939V490.558H801.969V532.143H854.923V541.643H792.001V430.129H854.923V439.629H801.969Z" fill="#F5F5F5"/>
<path d="M225.671 915.974H232.836V989.304H269.109V996.133H225.671V915.974ZM301.263 922.803V952.695H335.745V959.412H301.263V989.304H339.328V996.133H294.098V915.974H339.328V922.803H301.263ZM384.682 996.133V922.803H361.955V915.974H414.574V922.803H391.847V996.133H384.682ZM436.571 932.879L441.721 925.154C440.751 924.856 439.855 924.259 439.034 923.363C438.213 922.467 437.802 921.311 437.802 919.892C437.802 918.25 438.325 916.907 439.37 915.862C440.489 914.743 441.87 914.183 443.512 914.183C445.154 914.183 446.535 914.743 447.654 915.862C448.774 916.907 449.334 918.25 449.334 919.892C449.334 920.937 449.11 921.908 448.662 922.803C448.214 923.699 447.692 924.595 447.095 925.49L440.265 935.342L436.571 932.879ZM498.685 997.925C495.775 997.925 492.901 997.44 490.065 996.469C487.229 995.574 484.579 994.23 482.116 992.439C479.653 990.573 477.451 988.297 475.511 985.61C473.645 982.923 472.264 979.825 471.369 976.317L478.086 973.519C478.758 976.056 479.728 978.407 480.997 980.572C482.34 982.736 483.907 984.602 485.699 986.169C487.49 987.737 489.505 988.968 491.744 989.864C493.983 990.685 496.372 991.095 498.909 991.095C501.372 991.095 503.723 990.76 505.963 990.088C508.202 989.342 510.142 988.297 511.784 986.953C513.501 985.535 514.844 983.856 515.815 981.915C516.785 979.9 517.27 977.661 517.27 975.198C517.27 970.944 515.703 967.51 512.568 964.898C509.433 962.211 504.88 959.823 498.909 957.733L493.871 955.942C491.483 955.121 489.132 954.151 486.818 953.031C484.505 951.837 482.415 950.419 480.549 948.777C478.758 947.135 477.302 945.194 476.183 942.955C475.063 940.641 474.503 937.954 474.503 934.894C474.503 932.133 475.063 929.483 476.183 926.946C477.377 924.408 479.019 922.206 481.109 920.34C483.198 918.474 485.699 916.982 488.61 915.862C491.52 914.743 494.692 914.183 498.126 914.183C501.783 914.183 504.992 914.743 507.754 915.862C510.515 916.907 512.866 918.25 514.807 919.892C516.822 921.46 518.389 923.176 519.509 925.042C520.703 926.908 521.562 928.625 522.084 930.192L515.367 932.991C514.994 931.648 514.359 930.304 513.463 928.961C512.642 927.543 511.523 926.237 510.105 925.042C508.687 923.848 507.007 922.878 505.067 922.132C503.126 921.385 500.85 921.012 498.238 921.012C495.999 921.012 493.871 921.348 491.856 922.02C489.916 922.691 488.162 923.662 486.594 924.93C485.102 926.125 483.907 927.58 483.012 929.297C482.191 931.013 481.78 932.879 481.78 934.894C481.78 936.835 482.154 938.552 482.9 940.044C483.721 941.462 484.84 942.768 486.259 943.963C487.677 945.082 489.356 946.127 491.296 947.097C493.237 947.993 495.364 948.851 497.678 949.672L502.828 951.576C505.813 952.62 508.612 953.815 511.224 955.158C513.911 956.502 516.225 958.106 518.166 959.972C520.106 961.763 521.636 963.891 522.756 966.354C523.95 968.817 524.547 971.653 524.547 974.862C524.547 978.892 523.763 982.363 522.196 985.274C520.629 988.185 518.613 990.573 516.15 992.439C513.687 994.305 510.889 995.686 507.754 996.581C504.694 997.477 501.671 997.925 498.685 997.925ZM603.509 996.133V922.803H580.782V915.974H633.401V922.803H610.674V996.133H603.509ZM674.83 915.974H683.115L714.126 996.133H706.289L697.557 972.959H660.388L651.655 996.133H643.819L674.83 915.974ZM694.982 966.242L679.196 924.706H678.748L662.963 966.242H694.982ZM737.56 915.974H744.725V989.304H780.999V996.133H737.56V915.974ZM805.988 915.974H813.153V960.644H813.601L852.113 915.974H861.182V916.422L831.85 950.344L863.757 995.686V996.133H855.136L826.924 955.942L813.153 971.839V996.133H805.988V915.974Z" fill="#F5F5F5"/>
<path d="M243.479 1072.65C240.007 1072.65 236.856 1072.12 234.025 1071.05C231.194 1069.93 228.79 1068.3 226.814 1066.16C224.837 1064.03 223.315 1061.44 222.247 1058.39C221.178 1055.29 220.644 1051.77 220.644 1047.82V1014H233.143V1048.62C233.143 1052.14 234.025 1055.05 235.787 1057.35C237.55 1059.65 240.114 1060.79 243.479 1060.79C246.844 1060.79 249.408 1059.65 251.171 1057.35C252.933 1055.05 253.815 1052.14 253.815 1048.62V1014H266.314V1047.82C266.314 1051.45 265.779 1054.79 264.711 1057.83C263.643 1060.87 262.12 1063.49 260.144 1065.68C258.168 1067.87 255.764 1069.58 252.933 1070.81C250.102 1072.04 246.951 1072.65 243.479 1072.65ZM300.256 1041.25L283.27 1014H298.974L308.669 1031.15H309.47L319.165 1014H334.869L317.883 1041.25L336.471 1071.37H320.607L309.47 1052.14H308.669L297.532 1071.37H281.668L300.256 1041.25ZM380.341 1014H401.974C405.072 1014 407.85 1014.48 410.307 1015.45C412.764 1016.35 414.82 1017.64 416.476 1019.29C418.185 1020.95 419.467 1022.92 420.322 1025.22C421.23 1027.46 421.684 1029.92 421.684 1032.59C421.684 1034.46 421.364 1036.2 420.723 1037.8C420.135 1039.4 419.307 1040.9 418.239 1042.29C417.224 1043.62 416.022 1044.82 414.633 1045.89C413.245 1046.91 411.749 1047.76 410.147 1048.46V1049.18L425.129 1070.57V1071.37H410.868L396.366 1050.7H392.84V1071.37H380.341V1014ZM401.974 1039.16C404.218 1039.16 405.98 1038.52 407.262 1037.24C408.544 1035.9 409.185 1034.27 409.185 1032.35C409.185 1030.43 408.571 1028.83 407.342 1027.54C406.167 1026.21 404.378 1025.54 401.974 1025.54H392.84V1039.16H401.974ZM453.783 1025.86V1036.76H476.537V1048.62H453.783V1059.51H479.101V1071.37H441.284V1014H479.101V1025.86H453.783ZM516.815 1072.65C511.473 1072.65 506.853 1071.24 502.954 1068.41C499.108 1065.52 496.384 1061.41 494.781 1056.07L506.559 1051.42C507.253 1054.14 508.402 1056.39 510.004 1058.15C511.607 1059.91 513.877 1060.79 516.815 1060.79C517.776 1060.79 518.684 1060.69 519.539 1060.47C520.447 1060.26 521.221 1059.94 521.862 1059.51C522.557 1059.03 523.117 1058.44 523.545 1057.75C523.972 1057.06 524.186 1056.25 524.186 1055.35C524.186 1054.44 523.999 1053.61 523.625 1052.86C523.304 1052.06 522.744 1051.34 521.942 1050.7C521.141 1050.01 520.073 1049.34 518.737 1048.7C517.402 1048 515.72 1047.28 513.69 1046.53L510.164 1045.25C508.669 1044.72 507.12 1044 505.517 1043.09C503.968 1042.13 502.553 1040.98 501.271 1039.64C499.989 1038.31 498.947 1036.79 498.146 1035.08C497.345 1033.31 496.944 1031.36 496.944 1029.23C496.944 1026.93 497.398 1024.77 498.306 1022.74C499.215 1020.71 500.496 1018.97 502.152 1017.53C503.808 1016.03 505.811 1014.86 508.161 1014C510.512 1013.15 513.102 1012.72 515.933 1012.72C518.924 1012.72 521.488 1013.12 523.625 1013.92C525.761 1014.67 527.578 1015.66 529.073 1016.89C530.569 1018.06 531.744 1019.4 532.598 1020.89C533.507 1022.39 534.201 1023.83 534.682 1025.22L523.865 1029.79C523.278 1028.08 522.343 1026.72 521.061 1025.7C519.779 1024.63 518.123 1024.1 516.093 1024.1C513.957 1024.1 512.248 1024.55 510.966 1025.46C509.737 1026.32 509.123 1027.44 509.123 1028.83C509.123 1030.27 509.764 1031.55 511.046 1032.67C512.328 1033.79 514.598 1034.92 517.856 1036.04L521.381 1037.24C526.242 1038.9 530.008 1041.11 532.679 1043.89C535.349 1046.67 536.685 1050.41 536.685 1055.11C536.685 1058.1 536.07 1060.69 534.842 1062.88C533.667 1065.07 532.118 1066.88 530.195 1068.33C528.325 1069.77 526.189 1070.84 523.785 1071.53C521.435 1072.28 519.111 1072.65 516.815 1072.65ZM567.687 1025.86V1036.76H590.441V1048.62H567.687V1059.51H593.005V1071.37H555.188V1014H593.005V1025.86H567.687ZM629.196 1014H643.618L665.091 1071.37H651.31L646.903 1058.55H625.911L621.504 1071.37H607.724L629.196 1014ZM642.897 1047.17L638.731 1035.16L636.808 1028.11H636.006L634.084 1035.16L629.917 1047.17H642.897ZM681.454 1014H703.087C706.185 1014 708.963 1014.48 711.42 1015.45C713.877 1016.35 715.933 1017.64 717.589 1019.29C719.298 1020.95 720.58 1022.92 721.435 1025.22C722.343 1027.46 722.797 1029.92 722.797 1032.59C722.797 1034.46 722.476 1036.2 721.835 1037.8C721.248 1039.4 720.42 1040.9 719.352 1042.29C718.337 1043.62 717.135 1044.82 715.746 1045.89C714.357 1046.91 712.862 1047.76 711.259 1048.46V1049.18L726.242 1070.57V1071.37H711.98L697.478 1050.7H693.953V1071.37H681.454V1014ZM703.087 1039.16C705.33 1039.16 707.093 1038.52 708.375 1037.24C709.657 1035.9 710.298 1034.27 710.298 1032.35C710.298 1030.43 709.684 1028.83 708.455 1027.54C707.28 1026.21 705.491 1025.54 703.087 1025.54H693.953V1039.16H703.087ZM792.793 1062.08C786.917 1069.13 779.252 1072.65 769.798 1072.65C765.525 1072.65 761.546 1071.88 757.86 1070.33C754.174 1068.78 750.97 1066.67 748.245 1064C745.575 1061.28 743.465 1058.1 741.916 1054.47C740.367 1050.83 739.592 1046.91 739.592 1042.69C739.592 1038.47 740.367 1034.54 741.916 1030.91C743.465 1027.28 745.575 1024.13 748.245 1021.46C750.97 1018.73 754.174 1016.59 757.86 1015.05C761.546 1013.5 765.525 1012.72 769.798 1012.72C774.499 1012.72 778.558 1013.52 781.977 1015.13C785.448 1016.73 788.6 1019.05 791.431 1022.1L782.698 1030.59C781.202 1028.88 779.413 1027.46 777.33 1026.34C775.246 1025.17 772.763 1024.58 769.878 1024.58C767.368 1024.58 765.018 1025.01 762.828 1025.86C760.691 1026.72 758.821 1027.95 757.219 1029.55C755.617 1031.15 754.361 1033.07 753.453 1035.32C752.545 1037.51 752.091 1039.96 752.091 1042.69C752.091 1045.41 752.545 1047.9 753.453 1050.14C754.361 1052.33 755.617 1054.22 757.219 1055.83C758.821 1057.43 760.691 1058.66 762.828 1059.51C765.018 1060.37 767.368 1060.79 769.878 1060.79C772.923 1060.79 775.567 1060.18 777.81 1058.95C780.054 1057.72 782.083 1055.96 783.899 1053.66L792.793 1062.08ZM811.085 1014H823.584V1036.12H845.537V1014H858.036V1071.37H845.537V1047.98H823.584V1071.37H811.085V1014Z" fill="#F5F5F5"/>
<path d="M227.306 778.608H229.538V799.254H256.942V778.608H259.174V823H256.942V801.362H229.538V823H227.306V778.608ZM286.955 816.428H286.707C285.509 818.743 283.835 820.582 281.685 821.946C279.536 823.31 277.221 823.992 274.741 823.992C273.088 823.992 271.559 823.744 270.153 823.248C268.789 822.752 267.591 822.07 266.557 821.202C265.565 820.334 264.78 819.301 264.201 818.102C263.664 816.903 263.395 815.601 263.395 814.196C263.395 812.543 263.747 811.096 264.449 809.856C265.193 808.575 266.144 807.5 267.301 806.632C268.5 805.764 269.843 805.123 271.331 804.71C272.861 804.255 274.431 804.028 276.043 804.028C278.027 804.028 279.949 804.297 281.809 804.834C283.669 805.33 285.385 806.033 286.955 806.942V804.524C286.955 802.788 286.687 801.259 286.149 799.936C285.612 798.572 284.868 797.435 283.917 796.526C283.008 795.575 281.913 794.852 280.631 794.356C279.35 793.86 277.945 793.612 276.415 793.612C274.307 793.612 272.406 794.108 270.711 795.1C269.017 796.092 267.715 797.394 266.805 799.006L264.883 797.828C265.999 795.968 267.591 794.48 269.657 793.364C271.724 792.207 273.977 791.628 276.415 791.628C278.317 791.628 280.053 791.938 281.623 792.558C283.194 793.178 284.537 794.025 285.653 795.1C286.769 796.175 287.637 797.477 288.257 799.006C288.877 800.494 289.187 802.106 289.187 803.842V823H286.955V816.428ZM286.955 809.05C285.343 808.099 283.69 807.355 281.995 806.818C280.301 806.281 278.399 806.012 276.291 806.012C274.803 806.012 273.398 806.198 272.075 806.57C270.794 806.901 269.678 807.417 268.727 808.12C267.777 808.781 267.012 809.629 266.433 810.662C265.896 811.654 265.627 812.832 265.627 814.196C265.627 815.395 265.875 816.49 266.371 817.482C266.867 818.433 267.529 819.259 268.355 819.962C269.223 820.623 270.215 821.14 271.331 821.512C272.447 821.843 273.625 822.008 274.865 822.008C276.395 822.008 277.883 821.657 279.329 820.954C280.817 820.251 282.119 819.301 283.235 818.102C284.351 816.903 285.24 815.539 285.901 814.01C286.604 812.439 286.955 810.786 286.955 809.05ZM294.332 792.62H296.316V799.006H296.564C297.101 798.014 297.742 797.084 298.486 796.216C299.23 795.307 300.098 794.521 301.09 793.86C302.123 793.157 303.301 792.62 304.624 792.248C305.947 791.835 307.455 791.628 309.15 791.628C311.093 791.628 312.932 792.021 314.668 792.806C316.404 793.591 317.913 794.707 319.194 796.154C320.475 797.559 321.488 799.254 322.232 801.238C322.976 803.222 323.348 805.413 323.348 807.81C323.348 810.207 322.976 812.398 322.232 814.382C321.488 816.366 320.475 818.081 319.194 819.528C317.913 820.933 316.404 822.029 314.668 822.814C312.932 823.599 311.093 823.992 309.15 823.992C307.455 823.992 305.947 823.785 304.624 823.372C303.301 823 302.123 822.483 301.09 821.822C300.098 821.119 299.23 820.334 298.486 819.466C297.742 818.557 297.101 817.606 296.564 816.614H296.316L296.564 820.83V836.392H294.332V792.62ZM308.716 822.008C310.369 822.008 311.94 821.677 313.428 821.016C314.916 820.355 316.218 819.425 317.334 818.226C318.491 816.986 319.401 815.498 320.062 813.762C320.765 811.985 321.116 810.001 321.116 807.81C321.116 805.619 320.765 803.656 320.062 801.92C319.401 800.143 318.491 798.655 317.334 797.456C316.218 796.216 314.916 795.265 313.428 794.604C311.94 793.943 310.369 793.612 308.716 793.612C307.063 793.612 305.492 793.943 304.004 794.604C302.516 795.224 301.193 796.133 300.036 797.332C298.92 798.531 298.011 800.019 297.308 801.796C296.647 803.573 296.316 805.578 296.316 807.81C296.316 810.042 296.647 812.047 297.308 813.824C298.011 815.601 298.92 817.089 300.036 818.288C301.193 819.487 302.516 820.417 304.004 821.078C305.492 821.698 307.063 822.008 308.716 822.008ZM326.439 792.62H328.423V799.006H328.671C329.208 798.014 329.849 797.084 330.593 796.216C331.337 795.307 332.205 794.521 333.197 793.86C334.23 793.157 335.408 792.62 336.731 792.248C338.053 791.835 339.562 791.628 341.257 791.628C343.199 791.628 345.039 792.021 346.775 792.806C348.511 793.591 350.019 794.707 351.301 796.154C352.582 797.559 353.595 799.254 354.339 801.238C355.083 803.222 355.455 805.413 355.455 807.81C355.455 810.207 355.083 812.398 354.339 814.382C353.595 816.366 352.582 818.081 351.301 819.528C350.019 820.933 348.511 822.029 346.775 822.814C345.039 823.599 343.199 823.992 341.257 823.992C339.562 823.992 338.053 823.785 336.731 823.372C335.408 823 334.23 822.483 333.197 821.822C332.205 821.119 331.337 820.334 330.593 819.466C329.849 818.557 329.208 817.606 328.671 816.614H328.423L328.671 820.83V836.392H326.439V792.62ZM340.823 822.008C342.476 822.008 344.047 821.677 345.535 821.016C347.023 820.355 348.325 819.425 349.441 818.226C350.598 816.986 351.507 815.498 352.169 813.762C352.871 811.985 353.223 810.001 353.223 807.81C353.223 805.619 352.871 803.656 352.169 801.92C351.507 800.143 350.598 798.655 349.441 797.456C348.325 796.216 347.023 795.265 345.535 794.604C344.047 793.943 342.476 793.612 340.823 793.612C339.169 793.612 337.599 793.943 336.111 794.604C334.623 795.224 333.3 796.133 332.143 797.332C331.027 798.531 330.117 800.019 329.415 801.796C328.753 803.573 328.423 805.578 328.423 807.81C328.423 810.042 328.753 812.047 329.415 813.824C330.117 815.601 331.027 817.089 332.143 818.288C333.3 819.487 334.623 820.417 336.111 821.078C337.599 821.698 339.169 822.008 340.823 822.008ZM360.668 836.392L367.612 820.458L354.654 792.62H357.258L368.728 817.668H368.852L379.764 792.62H382.306L363.024 836.392H360.668ZM421.305 815.808H421.057C420.478 816.924 419.796 817.978 419.011 818.97C418.267 819.962 417.399 820.83 416.407 821.574C415.415 822.318 414.278 822.897 412.997 823.31C411.715 823.765 410.31 823.992 408.781 823.992C406.962 823.992 405.371 823.682 404.007 823.062C402.684 822.442 401.589 821.574 400.721 820.458C399.853 819.342 399.191 818.04 398.737 816.552C398.323 815.023 398.117 813.369 398.117 811.592V792.62H400.349V811.096C400.349 814.444 401.072 817.11 402.519 819.094C403.965 821.037 406.218 822.008 409.277 822.008C410.93 822.008 412.459 821.636 413.865 820.892C415.311 820.107 416.551 819.073 417.585 817.792C418.659 816.511 419.507 815.023 420.127 813.328C420.747 811.592 421.057 809.773 421.057 807.872V792.62H423.289V823H421.305V815.808ZM439.126 823.992C437.555 823.992 436.088 823.765 434.724 823.31C433.401 822.855 432.202 822.235 431.128 821.45C430.094 820.665 429.206 819.755 428.462 818.722C427.718 817.647 427.139 816.49 426.726 815.25L428.71 814.382C429.536 816.821 430.9 818.701 432.802 820.024C434.703 821.347 436.811 822.008 439.126 822.008C442.019 822.008 444.292 821.347 445.946 820.024C447.64 818.701 448.488 817.048 448.488 815.064C448.488 814.32 448.364 813.638 448.116 813.018C447.868 812.357 447.413 811.757 446.752 811.22C446.132 810.641 445.284 810.145 444.21 809.732C443.176 809.277 441.854 808.864 440.242 808.492L436.336 807.624C435.261 807.376 434.186 807.066 433.112 806.694C432.078 806.281 431.148 805.764 430.322 805.144C429.495 804.524 428.813 803.801 428.276 802.974C427.738 802.106 427.47 801.114 427.47 799.998C427.47 798.717 427.78 797.559 428.4 796.526C429.061 795.493 429.929 794.625 431.004 793.922C432.078 793.178 433.277 792.62 434.6 792.248C435.964 791.835 437.369 791.628 438.816 791.628C441.461 791.628 443.796 792.227 445.822 793.426C447.888 794.625 449.335 796.381 450.162 798.696L448.24 799.502C447.289 797.435 446.049 795.947 444.52 795.038C442.99 794.087 441.11 793.612 438.878 793.612C437.679 793.612 436.522 793.757 435.406 794.046C434.331 794.335 433.36 794.769 432.492 795.348C431.665 795.885 430.983 796.547 430.446 797.332C429.95 798.117 429.702 799.006 429.702 799.998C429.702 800.783 429.888 801.486 430.26 802.106C430.673 802.685 431.21 803.222 431.872 803.718C432.574 804.173 433.38 804.586 434.29 804.958C435.24 805.289 436.253 805.578 437.328 805.826L441.668 806.818C444.726 807.521 447 808.595 448.488 810.042C449.976 811.447 450.72 813.059 450.72 814.878C450.72 816.159 450.451 817.358 449.914 818.474C449.376 819.549 448.591 820.499 447.558 821.326C446.566 822.153 445.346 822.793 443.9 823.248C442.494 823.744 440.903 823.992 439.126 823.992ZM480.498 815.808C480.002 816.883 479.361 817.916 478.576 818.908C477.832 819.9 476.922 820.768 475.848 821.512C474.814 822.256 473.616 822.855 472.252 823.31C470.888 823.765 469.358 823.992 467.664 823.992C465.514 823.992 463.53 823.599 461.712 822.814C459.893 821.987 458.322 820.851 457 819.404C455.677 817.957 454.644 816.263 453.9 814.32C453.156 812.336 452.784 810.166 452.784 807.81C452.784 805.619 453.114 803.553 453.776 801.61C454.478 799.626 455.45 797.911 456.69 796.464C457.971 794.976 459.5 793.798 461.278 792.93C463.096 792.062 465.101 791.628 467.292 791.628C469.4 791.628 471.301 792 472.996 792.744C474.732 793.488 476.199 794.542 477.398 795.906C478.596 797.27 479.526 798.903 480.188 800.804C480.849 802.705 481.18 804.813 481.18 807.128C481.18 807.211 481.18 807.314 481.18 807.438C481.138 807.562 481.118 807.665 481.118 807.748V808.12H455.016C455.016 810.6 455.408 812.729 456.194 814.506C457.02 816.242 458.054 817.668 459.294 818.784C460.534 819.9 461.898 820.727 463.386 821.264C464.874 821.76 466.32 822.008 467.726 822.008C469.214 822.008 470.516 821.843 471.632 821.512C472.789 821.14 473.781 820.644 474.608 820.024C475.476 819.404 476.24 818.66 476.902 817.792C477.563 816.924 478.183 815.973 478.762 814.94L480.498 815.808ZM478.948 806.136C478.906 804.855 478.658 803.491 478.204 802.044C477.79 800.556 477.129 799.192 476.22 797.952C475.31 796.712 474.112 795.679 472.624 794.852C471.136 794.025 469.317 793.612 467.168 793.612C465.804 793.612 464.44 793.86 463.076 794.356C461.753 794.852 460.513 795.617 459.356 796.65C458.24 797.683 457.289 798.985 456.504 800.556C455.718 802.127 455.222 803.987 455.016 806.136H478.948ZM485.119 823V792.62H487.103V798.324H487.351C487.64 797.332 488.074 796.443 488.653 795.658C489.273 794.831 489.975 794.129 490.761 793.55C491.546 792.971 492.373 792.537 493.241 792.248C494.15 791.917 495.039 791.752 495.907 791.752C496.816 791.752 497.56 791.814 498.139 791.938C498.759 792.062 499.358 792.289 499.937 792.62L499.255 794.542C498.8 794.294 498.283 794.108 497.705 793.984C497.167 793.819 496.506 793.736 495.721 793.736C494.646 793.736 493.613 794.025 492.621 794.604C491.629 795.141 490.74 795.947 489.955 797.022C489.169 798.055 488.529 799.316 488.033 800.804C487.578 802.251 487.351 803.863 487.351 805.64V823H485.119ZM511.167 823.992C509.596 823.992 508.129 823.765 506.765 823.31C505.442 822.855 504.243 822.235 503.169 821.45C502.135 820.665 501.247 819.755 500.503 818.722C499.759 817.647 499.18 816.49 498.767 815.25L500.751 814.382C501.577 816.821 502.941 818.701 504.843 820.024C506.744 821.347 508.852 822.008 511.167 822.008C514.06 822.008 516.333 821.347 517.987 820.024C519.681 818.701 520.529 817.048 520.529 815.064C520.529 814.32 520.405 813.638 520.157 813.018C519.909 812.357 519.454 811.757 518.793 811.22C518.173 810.641 517.325 810.145 516.251 809.732C515.217 809.277 513.895 808.864 512.283 808.492L508.377 807.624C507.302 807.376 506.227 807.066 505.153 806.694C504.119 806.281 503.189 805.764 502.363 805.144C501.536 804.524 500.854 803.801 500.317 802.974C499.779 802.106 499.511 801.114 499.511 799.998C499.511 798.717 499.821 797.559 500.441 796.526C501.102 795.493 501.97 794.625 503.045 793.922C504.119 793.178 505.318 792.62 506.641 792.248C508.005 791.835 509.41 791.628 510.857 791.628C513.502 791.628 515.837 792.227 517.863 793.426C519.929 794.625 521.376 796.381 522.203 798.696L520.281 799.502C519.33 797.435 518.09 795.947 516.561 795.038C515.031 794.087 513.151 793.612 510.919 793.612C509.72 793.612 508.563 793.757 507.447 794.046C506.372 794.335 505.401 794.769 504.533 795.348C503.706 795.885 503.024 796.547 502.487 797.332C501.991 798.117 501.743 799.006 501.743 799.998C501.743 800.783 501.929 801.486 502.301 802.106C502.714 802.685 503.251 803.222 503.913 803.718C504.615 804.173 505.421 804.586 506.331 804.958C507.281 805.289 508.294 805.578 509.369 805.826L513.709 806.818C516.767 807.521 519.041 808.595 520.529 810.042C522.017 811.447 522.761 813.059 522.761 814.878C522.761 816.159 522.492 817.358 521.955 818.474C521.417 819.549 520.632 820.499 519.599 821.326C518.607 822.153 517.387 822.793 515.941 823.248C514.535 823.744 512.944 823.992 511.167 823.992ZM565.194 816.614H564.946C564.409 817.606 563.768 818.557 563.024 819.466C562.28 820.334 561.391 821.119 560.358 821.822C559.366 822.483 558.209 823 556.886 823.372C555.563 823.785 554.055 823.992 552.36 823.992C550.417 823.992 548.578 823.599 546.842 822.814C545.106 822.029 543.597 820.933 542.316 819.528C541.035 818.081 540.022 816.366 539.278 814.382C538.534 812.398 538.162 810.207 538.162 807.81C538.162 805.413 538.534 803.222 539.278 801.238C540.022 799.254 541.035 797.559 542.316 796.154C543.597 794.707 545.106 793.591 546.842 792.806C548.578 792.021 550.417 791.628 552.36 791.628C554.055 791.628 555.563 791.835 556.886 792.248C558.209 792.62 559.366 793.157 560.358 793.86C561.391 794.521 562.28 795.307 563.024 796.216C563.768 797.084 564.409 798.014 564.946 799.006H565.194L564.946 794.79V778.608H567.178V823H565.194V816.614ZM552.794 822.008C554.447 822.008 556.018 821.698 557.506 821.078C558.994 820.417 560.296 819.487 561.412 818.288C562.569 817.089 563.479 815.601 564.14 813.824C564.843 812.047 565.194 810.042 565.194 807.81C565.194 805.578 564.843 803.573 564.14 801.796C563.479 800.019 562.569 798.531 561.412 797.332C560.296 796.133 558.994 795.224 557.506 794.604C556.018 793.943 554.447 793.612 552.794 793.612C551.141 793.612 549.57 793.943 548.082 794.604C546.594 795.265 545.271 796.216 544.114 797.456C542.998 798.655 542.089 800.143 541.386 801.92C540.725 803.656 540.394 805.619 540.394 807.81C540.394 810.001 540.725 811.985 541.386 813.762C542.089 815.498 542.998 816.986 544.114 818.226C545.271 819.425 546.594 820.355 548.082 821.016C549.57 821.677 551.141 822.008 552.794 822.008ZM585.88 791.628C588.029 791.628 590.013 792.041 591.832 792.868C593.692 793.695 595.283 794.831 596.606 796.278C597.97 797.725 599.024 799.44 599.768 801.424C600.553 803.367 600.946 805.495 600.946 807.81C600.946 810.125 600.553 812.274 599.768 814.258C599.024 816.201 597.97 817.895 596.606 819.342C595.283 820.789 593.692 821.925 591.832 822.752C590.013 823.579 588.029 823.992 585.88 823.992C583.73 823.992 581.726 823.579 579.866 822.752C578.047 821.925 576.456 820.789 575.092 819.342C573.769 817.895 572.715 816.201 571.93 814.258C571.186 812.274 570.814 810.125 570.814 807.81C570.814 805.495 571.186 803.367 571.93 801.424C572.715 799.44 573.769 797.725 575.092 796.278C576.456 794.831 578.047 793.695 579.866 792.868C581.726 792.041 583.73 791.628 585.88 791.628ZM585.88 822.008C587.533 822.008 589.124 821.657 590.654 820.954C592.224 820.251 593.609 819.28 594.808 818.04C596.006 816.759 596.957 815.25 597.66 813.514C598.362 811.778 598.714 809.877 598.714 807.81C598.714 805.743 598.362 803.842 597.66 802.106C596.957 800.37 596.006 798.882 594.808 797.642C593.609 796.361 592.224 795.369 590.654 794.666C589.124 793.963 587.533 793.612 585.88 793.612C584.185 793.612 582.573 793.963 581.044 794.666C579.514 795.369 578.15 796.361 576.952 797.642C575.753 798.882 574.802 800.37 574.1 802.106C573.397 803.842 573.046 805.743 573.046 807.81C573.046 809.877 573.397 811.778 574.1 813.514C574.802 815.25 575.753 816.759 576.952 818.04C578.15 819.28 579.514 820.251 581.044 820.954C582.573 821.657 584.185 822.008 585.88 822.008ZM606.283 799.812H606.531C607.068 798.696 607.73 797.642 608.515 796.65C609.3 795.658 610.189 794.79 611.181 794.046C612.173 793.302 613.289 792.723 614.529 792.31C615.81 791.855 617.236 791.628 618.807 791.628C620.626 791.628 622.196 791.938 623.519 792.558C624.883 793.178 625.999 794.046 626.867 795.162C627.735 796.278 628.376 797.601 628.789 799.13C629.244 800.618 629.471 802.251 629.471 804.028V823H627.239V804.524C627.239 801.176 626.516 798.531 625.069 796.588C623.622 794.604 621.37 793.612 618.311 793.612C616.658 793.612 615.108 794.005 613.661 794.79C612.256 795.534 611.016 796.547 609.941 797.828C608.908 799.109 608.081 800.618 607.461 802.354C606.841 804.049 606.531 805.847 606.531 807.748V823H604.299V792.62H606.283V799.812ZM633.426 785.614L636.03 781.708C635.658 781.543 635.348 781.295 635.1 780.964C634.852 780.592 634.728 780.199 634.728 779.786C634.728 779.166 634.935 778.649 635.348 778.236C635.761 777.823 636.278 777.616 636.898 777.616C637.518 777.616 638.035 777.823 638.448 778.236C638.861 778.649 639.068 779.166 639.068 779.786C639.068 780.117 639.006 780.406 638.882 780.654C638.799 780.861 638.675 781.088 638.51 781.336L634.852 786.544L633.426 785.614ZM646.737 794.604H641.033V792.62H646.737V783.32H648.969V792.62H656.657V794.604H648.969V816.118C648.969 817.069 649.113 817.875 649.403 818.536C649.733 819.197 650.147 819.755 650.643 820.21C651.552 821.078 652.647 821.512 653.929 821.512C654.507 821.512 655.045 821.471 655.541 821.388C656.078 821.264 656.636 821.037 657.215 820.706L657.897 822.504C657.318 822.835 656.698 823.083 656.037 823.248C655.375 823.413 654.611 823.496 653.743 823.496C652.916 823.496 652.089 823.351 651.263 823.062C650.477 822.814 649.733 822.401 649.031 821.822C648.328 821.243 647.77 820.479 647.357 819.528C646.943 818.536 646.737 817.317 646.737 815.87V794.604ZM674.964 778.608H677.196V794.666L676.948 800.122H677.196C678.312 797.518 679.862 795.451 681.846 793.922C683.83 792.393 686.372 791.628 689.472 791.628C691.291 791.628 692.862 791.938 694.184 792.558C695.548 793.178 696.664 794.046 697.532 795.162C698.4 796.278 699.041 797.601 699.454 799.13C699.909 800.618 700.136 802.251 700.136 804.028V823H697.904V804.524C697.904 801.176 697.181 798.531 695.734 796.588C694.288 794.604 692.035 793.612 688.976 793.612C687.364 793.612 685.835 793.984 684.388 794.728C682.983 795.472 681.743 796.485 680.668 797.766C679.594 799.047 678.746 800.556 678.126 802.292C677.506 803.987 677.196 805.805 677.196 807.748V823H674.964V778.608ZM727.134 816.428H726.886C725.687 818.743 724.013 820.582 721.864 821.946C719.714 823.31 717.4 823.992 714.92 823.992C713.266 823.992 711.737 823.744 710.332 823.248C708.968 822.752 707.769 822.07 706.736 821.202C705.744 820.334 704.958 819.301 704.38 818.102C703.842 816.903 703.574 815.601 703.574 814.196C703.574 812.543 703.925 811.096 704.628 809.856C705.372 808.575 706.322 807.5 707.48 806.632C708.678 805.764 710.022 805.123 711.51 804.71C713.039 804.255 714.61 804.028 716.222 804.028C718.206 804.028 720.128 804.297 721.988 804.834C723.848 805.33 725.563 806.033 727.134 806.942V804.524C727.134 802.788 726.865 801.259 726.328 799.936C725.79 798.572 725.046 797.435 724.096 796.526C723.186 795.575 722.091 794.852 720.81 794.356C719.528 793.86 718.123 793.612 716.594 793.612C714.486 793.612 712.584 794.108 710.89 795.1C709.195 796.092 707.893 797.394 706.984 799.006L705.062 797.828C706.178 795.968 707.769 794.48 709.836 793.364C711.902 792.207 714.155 791.628 716.594 791.628C718.495 791.628 720.231 791.938 721.802 792.558C723.372 793.178 724.716 794.025 725.832 795.1C726.948 796.175 727.816 797.477 728.436 799.006C729.056 800.494 729.366 802.106 729.366 803.842V823H727.134V816.428ZM727.134 809.05C725.522 808.099 723.868 807.355 722.174 806.818C720.479 806.281 718.578 806.012 716.47 806.012C714.982 806.012 713.576 806.198 712.254 806.57C710.972 806.901 709.856 807.417 708.906 808.12C707.955 808.781 707.19 809.629 706.612 810.662C706.074 811.654 705.806 812.832 705.806 814.196C705.806 815.395 706.054 816.49 706.55 817.482C707.046 818.433 707.707 819.259 708.534 819.962C709.402 820.623 710.394 821.14 711.51 821.512C712.626 821.843 713.804 822.008 715.044 822.008C716.573 822.008 718.061 821.657 719.508 820.954C720.996 820.251 722.298 819.301 723.414 818.102C724.53 816.903 725.418 815.539 726.08 814.01C726.782 812.439 727.134 810.786 727.134 809.05ZM734.51 792.62H736.494V799.006H736.742C737.279 798.014 737.92 797.084 738.664 796.216C739.408 795.307 740.276 794.521 741.268 793.86C742.301 793.157 743.479 792.62 744.802 792.248C746.125 791.835 747.633 791.628 749.328 791.628C751.271 791.628 753.11 792.021 754.846 792.806C756.582 793.591 758.091 794.707 759.372 796.154C760.653 797.559 761.666 799.254 762.41 801.238C763.154 803.222 763.526 805.413 763.526 807.81C763.526 810.207 763.154 812.398 762.41 814.382C761.666 816.366 760.653 818.081 759.372 819.528C758.091 820.933 756.582 822.029 754.846 822.814C753.11 823.599 751.271 823.992 749.328 823.992C747.633 823.992 746.125 823.785 744.802 823.372C743.479 823 742.301 822.483 741.268 821.822C740.276 821.119 739.408 820.334 738.664 819.466C737.92 818.557 737.279 817.606 736.742 816.614H736.494L736.742 820.83V836.392H734.51V792.62ZM748.894 822.008C750.547 822.008 752.118 821.677 753.606 821.016C755.094 820.355 756.396 819.425 757.512 818.226C758.669 816.986 759.579 815.498 760.24 813.762C760.943 811.985 761.294 810.001 761.294 807.81C761.294 805.619 760.943 803.656 760.24 801.92C759.579 800.143 758.669 798.655 757.512 797.456C756.396 796.216 755.094 795.265 753.606 794.604C752.118 793.943 750.547 793.612 748.894 793.612C747.241 793.612 745.67 793.943 744.182 794.604C742.694 795.224 741.371 796.133 740.214 797.332C739.098 798.531 738.189 800.019 737.486 801.796C736.825 803.573 736.494 805.578 736.494 807.81C736.494 810.042 736.825 812.047 737.486 813.824C738.189 815.601 739.098 817.089 740.214 818.288C741.371 819.487 742.694 820.417 744.182 821.078C745.67 821.698 747.241 822.008 748.894 822.008ZM766.617 792.62H768.601V799.006H768.849C769.386 798.014 770.027 797.084 770.771 796.216C771.515 795.307 772.383 794.521 773.375 793.86C774.408 793.157 775.586 792.62 776.909 792.248C778.232 791.835 779.74 791.628 781.435 791.628C783.378 791.628 785.217 792.021 786.953 792.806C788.689 793.591 790.198 794.707 791.479 796.154C792.76 797.559 793.773 799.254 794.517 801.238C795.261 803.222 795.633 805.413 795.633 807.81C795.633 810.207 795.261 812.398 794.517 814.382C793.773 816.366 792.76 818.081 791.479 819.528C790.198 820.933 788.689 822.029 786.953 822.814C785.217 823.599 783.378 823.992 781.435 823.992C779.74 823.992 778.232 823.785 776.909 823.372C775.586 823 774.408 822.483 773.375 821.822C772.383 821.119 771.515 820.334 770.771 819.466C770.027 818.557 769.386 817.606 768.849 816.614H768.601L768.849 820.83V836.392H766.617V792.62ZM781.001 822.008C782.654 822.008 784.225 821.677 785.713 821.016C787.201 820.355 788.503 819.425 789.619 818.226C790.776 816.986 791.686 815.498 792.347 813.762C793.05 811.985 793.401 810.001 793.401 807.81C793.401 805.619 793.05 803.656 792.347 801.92C791.686 800.143 790.776 798.655 789.619 797.456C788.503 796.216 787.201 795.265 785.713 794.604C784.225 793.943 782.654 793.612 781.001 793.612C779.348 793.612 777.777 793.943 776.289 794.604C774.801 795.224 773.478 796.133 772.321 797.332C771.205 798.531 770.296 800.019 769.593 801.796C768.932 803.573 768.601 805.578 768.601 807.81C768.601 810.042 768.932 812.047 769.593 813.824C770.296 815.601 771.205 817.089 772.321 818.288C773.478 819.487 774.801 820.417 776.289 821.078C777.777 821.698 779.348 822.008 781.001 822.008ZM825.307 815.808C824.811 816.883 824.171 817.916 823.385 818.908C822.641 819.9 821.732 820.768 820.657 821.512C819.624 822.256 818.425 822.855 817.061 823.31C815.697 823.765 814.168 823.992 812.473 823.992C810.324 823.992 808.34 823.599 806.521 822.814C804.703 821.987 803.132 820.851 801.809 819.404C800.487 817.957 799.453 816.263 798.709 814.32C797.965 812.336 797.593 810.166 797.593 807.81C797.593 805.619 797.924 803.553 798.585 801.61C799.288 799.626 800.259 797.911 801.499 796.464C802.781 794.976 804.31 793.798 806.087 792.93C807.906 792.062 809.911 791.628 812.101 791.628C814.209 791.628 816.111 792 817.805 792.744C819.541 793.488 821.009 794.542 822.207 795.906C823.406 797.27 824.336 798.903 824.997 800.804C825.659 802.705 825.989 804.813 825.989 807.128C825.989 807.211 825.989 807.314 825.989 807.438C825.948 807.562 825.927 807.665 825.927 807.748V808.12H799.825C799.825 810.6 800.218 812.729 801.003 814.506C801.83 816.242 802.863 817.668 804.103 818.784C805.343 819.9 806.707 820.727 808.195 821.264C809.683 821.76 811.13 822.008 812.535 822.008C814.023 822.008 815.325 821.843 816.441 821.512C817.599 821.14 818.591 820.644 819.417 820.024C820.285 819.404 821.05 818.66 821.711 817.792C822.373 816.924 822.993 815.973 823.571 814.94L825.307 815.808ZM823.757 806.136C823.716 804.855 823.468 803.491 823.013 802.044C822.6 800.556 821.939 799.192 821.029 797.952C820.12 796.712 818.921 795.679 817.433 794.852C815.945 794.025 814.127 793.612 811.977 793.612C810.613 793.612 809.249 793.86 807.885 794.356C806.563 794.852 805.323 795.617 804.165 796.65C803.049 797.683 802.099 798.985 801.313 800.556C800.528 802.127 800.032 803.987 799.825 806.136H823.757ZM831.912 799.812H832.16C832.697 798.696 833.359 797.642 834.144 796.65C834.929 795.658 835.818 794.79 836.81 794.046C837.802 793.302 838.918 792.723 840.158 792.31C841.439 791.855 842.865 791.628 844.436 791.628C846.255 791.628 847.825 791.938 849.148 792.558C850.512 793.178 851.628 794.046 852.496 795.162C853.364 796.278 854.005 797.601 854.418 799.13C854.873 800.618 855.1 802.251 855.1 804.028V823H852.868V804.524C852.868 801.176 852.145 798.531 850.698 796.588C849.251 794.604 846.999 793.612 843.94 793.612C842.287 793.612 840.737 794.005 839.29 794.79C837.885 795.534 836.645 796.547 835.57 797.828C834.537 799.109 833.71 800.618 833.09 802.354C832.47 804.049 832.16 805.847 832.16 807.748V823H829.928V792.62H831.912V799.812ZM399.878 839.608H402.11V855.79L401.862 860.006H402.11C402.648 859.014 403.288 858.084 404.032 857.216C404.776 856.307 405.644 855.521 406.636 854.86C407.67 854.157 408.848 853.62 410.17 853.248C411.493 852.835 413.002 852.628 414.696 852.628C416.639 852.628 418.478 853.021 420.214 853.806C421.95 854.591 423.459 855.707 424.74 857.154C426.022 858.559 427.034 860.254 427.778 862.238C428.522 864.222 428.894 866.413 428.894 868.81C428.894 871.207 428.522 873.398 427.778 875.382C427.034 877.366 426.022 879.081 424.74 880.528C423.459 881.933 421.95 883.029 420.214 883.814C418.478 884.599 416.639 884.992 414.696 884.992C413.002 884.992 411.493 884.785 410.17 884.372C408.848 884 407.67 883.483 406.636 882.822C405.644 882.119 404.776 881.334 404.032 880.466C403.288 879.557 402.648 878.606 402.11 877.614H401.862V884H399.878V839.608ZM414.262 883.008C415.916 883.008 417.486 882.677 418.974 882.016C420.462 881.355 421.764 880.425 422.88 879.226C424.038 877.986 424.947 876.498 425.608 874.762C426.311 872.985 426.662 871.001 426.662 868.81C426.662 866.619 426.311 864.656 425.608 862.92C424.947 861.143 424.038 859.655 422.88 858.456C421.764 857.216 420.462 856.265 418.974 855.604C417.486 854.943 415.916 854.612 414.262 854.612C412.609 854.612 411.038 854.943 409.55 855.604C408.062 856.224 406.74 857.133 405.582 858.332C404.466 859.531 403.557 861.019 402.854 862.796C402.193 864.573 401.862 866.578 401.862 868.81C401.862 871.042 402.193 873.047 402.854 874.824C403.557 876.601 404.466 878.089 405.582 879.288C406.74 880.487 408.062 881.417 409.55 882.078C411.038 882.698 412.609 883.008 414.262 883.008ZM434.102 897.392L441.046 881.458L428.088 853.62H430.692L442.162 878.668H442.286L453.198 853.62H455.74L436.458 897.392H434.102ZM493.374 877.428H493.126C491.928 879.743 490.254 881.582 488.104 882.946C485.955 884.31 483.64 884.992 481.16 884.992C479.507 884.992 477.978 884.744 476.572 884.248C475.208 883.752 474.01 883.07 472.976 882.202C471.984 881.334 471.199 880.301 470.62 879.102C470.083 877.903 469.814 876.601 469.814 875.196C469.814 873.543 470.166 872.096 470.868 870.856C471.612 869.575 472.563 868.5 473.72 867.632C474.919 866.764 476.262 866.123 477.75 865.71C479.28 865.255 480.85 865.028 482.462 865.028C484.446 865.028 486.368 865.297 488.228 865.834C490.088 866.33 491.804 867.033 493.374 867.942V865.524C493.374 863.788 493.106 862.259 492.568 860.936C492.031 859.572 491.287 858.435 490.336 857.526C489.427 856.575 488.332 855.852 487.05 855.356C485.769 854.86 484.364 854.612 482.834 854.612C480.726 854.612 478.825 855.108 477.13 856.1C475.436 857.092 474.134 858.394 473.224 860.006L471.302 858.828C472.418 856.968 474.01 855.48 476.076 854.364C478.143 853.207 480.396 852.628 482.834 852.628C484.736 852.628 486.472 852.938 488.042 853.558C489.613 854.178 490.956 855.025 492.072 856.1C493.188 857.175 494.056 858.477 494.676 860.006C495.296 861.494 495.606 863.106 495.606 864.842V884H493.374V877.428ZM493.374 870.05C491.762 869.099 490.109 868.355 488.414 867.818C486.72 867.281 484.818 867.012 482.71 867.012C481.222 867.012 479.817 867.198 478.494 867.57C477.213 867.901 476.097 868.417 475.146 869.12C474.196 869.781 473.431 870.629 472.852 871.662C472.315 872.654 472.046 873.832 472.046 875.196C472.046 876.395 472.294 877.49 472.79 878.482C473.286 879.433 473.948 880.259 474.774 880.962C475.642 881.623 476.634 882.14 477.75 882.512C478.866 882.843 480.044 883.008 481.284 883.008C482.814 883.008 484.302 882.657 485.748 881.954C487.236 881.251 488.538 880.301 489.654 879.102C490.77 877.903 491.659 876.539 492.32 875.01C493.023 873.439 493.374 871.786 493.374 870.05ZM526.364 876.436C525.207 879.123 523.574 881.231 521.466 882.76C519.358 884.248 516.713 884.992 513.53 884.992C511.422 884.992 509.459 884.579 507.64 883.752C505.863 882.925 504.292 881.789 502.928 880.342C501.605 878.895 500.572 877.201 499.828 875.258C499.084 873.274 498.712 871.125 498.712 868.81C498.712 866.495 499.084 864.367 499.828 862.424C500.572 860.44 501.605 858.725 502.928 857.278C504.292 855.831 505.863 854.695 507.64 853.868C509.459 853.041 511.422 852.628 513.53 852.628C516.713 852.628 519.358 853.393 521.466 854.922C523.574 856.41 525.207 858.497 526.364 861.184L524.442 862.052C523.367 859.655 521.921 857.815 520.102 856.534C518.325 855.253 516.134 854.612 513.53 854.612C511.918 854.612 510.347 854.963 508.818 855.666C507.33 856.327 505.987 857.278 504.788 858.518C503.631 859.758 502.701 861.246 501.998 862.982C501.295 864.718 500.944 866.661 500.944 868.81C500.944 870.959 501.295 872.902 501.998 874.638C502.701 876.374 503.631 877.862 504.788 879.102C505.987 880.342 507.33 881.313 508.818 882.016C510.347 882.677 511.918 883.008 513.53 883.008C516.134 883.008 518.325 882.367 520.102 881.086C521.921 879.805 523.367 877.965 524.442 875.568L526.364 876.436ZM555.443 876.436C554.286 879.123 552.653 881.231 550.545 882.76C548.437 884.248 545.792 884.992 542.609 884.992C540.501 884.992 538.538 884.579 536.719 883.752C534.942 882.925 533.371 881.789 532.007 880.342C530.685 878.895 529.651 877.201 528.907 875.258C528.163 873.274 527.791 871.125 527.791 868.81C527.791 866.495 528.163 864.367 528.907 862.424C529.651 860.44 530.685 858.725 532.007 857.278C533.371 855.831 534.942 854.695 536.719 853.868C538.538 853.041 540.501 852.628 542.609 852.628C545.792 852.628 548.437 853.393 550.545 854.922C552.653 856.41 554.286 858.497 555.443 861.184L553.521 862.052C552.447 859.655 551 857.815 549.181 856.534C547.404 855.253 545.213 854.612 542.609 854.612C540.997 854.612 539.427 854.963 537.897 855.666C536.409 856.327 535.066 857.278 533.867 858.518C532.71 859.758 531.78 861.246 531.077 862.982C530.375 864.718 530.023 866.661 530.023 868.81C530.023 870.959 530.375 872.902 531.077 874.638C531.78 876.374 532.71 877.862 533.867 879.102C535.066 880.342 536.409 881.313 537.897 882.016C539.427 882.677 540.997 883.008 542.609 883.008C545.213 883.008 547.404 882.367 549.181 881.086C551 879.805 552.447 877.965 553.521 875.568L555.443 876.436ZM560.522 845.25C559.943 845.25 559.447 845.043 559.034 844.63C558.62 844.217 558.414 843.721 558.414 843.142C558.414 842.563 558.62 842.067 559.034 841.654C559.447 841.241 559.943 841.034 560.522 841.034C561.1 841.034 561.596 841.241 562.01 841.654C562.423 842.067 562.63 842.563 562.63 843.142C562.63 843.721 562.423 844.217 562.01 844.63C561.596 845.043 561.1 845.25 560.522 845.25ZM559.406 884V853.62H561.638V884H559.406ZM592.578 877.614H592.33C591.793 878.606 591.152 879.557 590.408 880.466C589.664 881.334 588.775 882.119 587.742 882.822C586.75 883.483 585.593 884 584.27 884.372C582.947 884.785 581.439 884.992 579.744 884.992C577.801 884.992 575.962 884.599 574.226 883.814C572.49 883.029 570.981 881.933 569.7 880.528C568.419 879.081 567.406 877.366 566.662 875.382C565.918 873.398 565.546 871.207 565.546 868.81C565.546 866.413 565.918 864.222 566.662 862.238C567.406 860.254 568.419 858.559 569.7 857.154C570.981 855.707 572.49 854.591 574.226 853.806C575.962 853.021 577.801 852.628 579.744 852.628C581.439 852.628 582.947 852.835 584.27 853.248C585.593 853.62 586.75 854.157 587.742 854.86C588.775 855.521 589.664 856.307 590.408 857.216C591.152 858.084 591.793 859.014 592.33 860.006H592.578L592.33 855.79V839.608H594.562V884H592.578V877.614ZM580.178 883.008C581.831 883.008 583.402 882.698 584.89 882.078C586.378 881.417 587.68 880.487 588.796 879.288C589.953 878.089 590.863 876.601 591.524 874.824C592.227 873.047 592.578 871.042 592.578 868.81C592.578 866.578 592.227 864.573 591.524 862.796C590.863 861.019 589.953 859.531 588.796 858.332C587.68 857.133 586.378 856.224 584.89 855.604C583.402 854.943 581.831 854.612 580.178 854.612C578.525 854.612 576.954 854.943 575.466 855.604C573.978 856.265 572.655 857.216 571.498 858.456C570.382 859.655 569.473 861.143 568.77 862.92C568.109 864.656 567.778 866.619 567.778 868.81C567.778 871.001 568.109 872.985 568.77 874.762C569.473 876.498 570.382 877.986 571.498 879.226C572.655 880.425 573.978 881.355 575.466 882.016C576.954 882.677 578.525 883.008 580.178 883.008ZM625.912 876.808C625.416 877.883 624.775 878.916 623.99 879.908C623.246 880.9 622.336 881.768 621.262 882.512C620.228 883.256 619.03 883.855 617.666 884.31C616.302 884.765 614.772 884.992 613.078 884.992C610.928 884.992 608.944 884.599 607.126 883.814C605.307 882.987 603.736 881.851 602.414 880.404C601.091 878.957 600.058 877.263 599.314 875.32C598.57 873.336 598.198 871.166 598.198 868.81C598.198 866.619 598.528 864.553 599.19 862.61C599.892 860.626 600.864 858.911 602.104 857.464C603.385 855.976 604.914 854.798 606.692 853.93C608.51 853.062 610.515 852.628 612.706 852.628C614.814 852.628 616.715 853 618.41 853.744C620.146 854.488 621.613 855.542 622.812 856.906C624.01 858.27 624.94 859.903 625.602 861.804C626.263 863.705 626.594 865.813 626.594 868.128C626.594 868.211 626.594 868.314 626.594 868.438C626.552 868.562 626.532 868.665 626.532 868.748V869.12H600.43C600.43 871.6 600.822 873.729 601.608 875.506C602.434 877.242 603.468 878.668 604.708 879.784C605.948 880.9 607.312 881.727 608.8 882.264C610.288 882.76 611.734 883.008 613.14 883.008C614.628 883.008 615.93 882.843 617.046 882.512C618.203 882.14 619.195 881.644 620.022 881.024C620.89 880.404 621.654 879.66 622.316 878.792C622.977 877.924 623.597 876.973 624.176 875.94L625.912 876.808ZM624.362 867.136C624.32 865.855 624.072 864.491 623.618 863.044C623.204 861.556 622.543 860.192 621.634 858.952C620.724 857.712 619.526 856.679 618.038 855.852C616.55 855.025 614.731 854.612 612.582 854.612C611.218 854.612 609.854 854.86 608.49 855.356C607.167 855.852 605.927 856.617 604.77 857.65C603.654 858.683 602.703 859.985 601.918 861.556C601.132 863.127 600.636 864.987 600.43 867.136H624.362ZM632.517 860.812H632.765C633.302 859.696 633.963 858.642 634.749 857.65C635.534 856.658 636.423 855.79 637.415 855.046C638.407 854.302 639.523 853.723 640.763 853.31C642.044 852.855 643.47 852.628 645.041 852.628C646.859 852.628 648.43 852.938 649.753 853.558C651.117 854.178 652.233 855.046 653.101 856.162C653.969 857.278 654.609 858.601 655.023 860.13C655.477 861.618 655.705 863.251 655.705 865.028V884H653.473V865.524C653.473 862.176 652.749 859.531 651.303 857.588C649.856 855.604 647.603 854.612 644.545 854.612C642.891 854.612 641.341 855.005 639.895 855.79C638.489 856.534 637.249 857.547 636.175 858.828C635.141 860.109 634.315 861.618 633.695 863.354C633.075 865.049 632.765 866.847 632.765 868.748V884H630.533V853.62H632.517V860.812ZM663.326 855.604H657.622V853.62H663.326V844.32H665.558V853.62H673.246V855.604H665.558V877.118C665.558 878.069 665.703 878.875 665.992 879.536C666.323 880.197 666.736 880.755 667.232 881.21C668.142 882.078 669.237 882.512 670.518 882.512C671.097 882.512 671.634 882.471 672.13 882.388C672.668 882.264 673.226 882.037 673.804 881.706L674.486 883.504C673.908 883.835 673.288 884.083 672.626 884.248C671.965 884.413 671.2 884.496 670.332 884.496C669.506 884.496 668.679 884.351 667.852 884.062C667.067 883.814 666.323 883.401 665.62 882.822C664.918 882.243 664.36 881.479 663.946 880.528C663.533 879.536 663.326 878.317 663.326 876.87V855.604ZM679.526 884.372C678.906 884.372 678.39 884.165 677.976 883.752C677.563 883.339 677.356 882.822 677.356 882.202C677.356 881.582 677.563 881.065 677.976 880.652C678.39 880.239 678.906 880.032 679.526 880.032C680.146 880.032 680.663 880.239 681.076 880.652C681.49 881.065 681.696 881.582 681.696 882.202C681.696 882.822 681.49 883.339 681.076 883.752C680.663 884.165 680.146 884.372 679.526 884.372ZM678.41 861.68V839.608H680.642V861.68L680.146 875.196H678.906L678.41 861.68Z" fill="#F5F5F5"/>
<path d="M123.693 1193.88C132.108 1192.3 140.21 1197.84 141.791 1206.26L142.997 1212.68C144.578 1221.09 139.038 1229.19 130.624 1230.77L76.011 1241.03C71.7297 1241.84 70.3036 1247.25 73.6333 1250.06L128.894 1296.67C130.312 1297.86 131.98 1298.08 133.27 1297.68C134.482 1297.31 135.402 1296.42 135.659 1294.9C137.34 1284.94 137.481 1274.02 136.017 1262.11C135.014 1253.95 140.261 1245.88 148.757 1244.28L158.995 1242.36C167.329 1240.79 175.711 1246.28 176.861 1255.07C180.22 1280.74 177.674 1304.06 169.011 1324.88C167.949 1327.43 168.63 1330.14 170.398 1331.63L194.034 1351.63C200.982 1357.5 201.396 1368.07 194.93 1374.48L188.575 1380.77C182.772 1386.52 173.507 1386.78 167.392 1381.36L147.985 1364.19C145.994 1362.42 142.614 1362.34 140.098 1364.48C124.878 1377.41 105.892 1385.92 83.3527 1390.15C57.4895 1395.01 35.117 1393.28 16.625 1384.37L16.6088 1384.36L16.5934 1384.35C-2.22622 1375.12 -13.6922 1359.34 -17.765 1337.66C-20.9239 1320.85 -18.4412 1306.22 -9.59638 1294.44C-0.921866 1282.87 10.6069 1275.67 24.7727 1273.01C31.5438 1271.74 38.0549 1271.79 44.2513 1273.2L8.56023 1241.87C6.0202 1239.64 4.27876 1236.64 3.60036 1233.33L3.43108 1232.51C1.69276 1224.02 7.24401 1215.76 15.7562 1214.16L123.693 1193.88ZM47.5436 1299.51C38.5084 1301.21 32.0421 1305 27.6355 1310.6L27.6132 1310.63L27.5897 1310.66C23.354 1315.89 21.77 1322.44 23.364 1330.92C25.288 1341.17 30.4917 1347.81 39.0392 1351.57C47.9449 1355.48 60.2385 1356.3 76.4219 1353.26C90.7139 1350.58 102.348 1345.5 111.523 1338.18C113.092 1336.93 113.486 1334.04 111.123 1331.95L92.034 1315.07L92.027 1315.07L92.0198 1315.06C83.615 1307.57 76.0813 1302.9 69.4162 1300.67L69.3674 1300.65C62.942 1298.43 55.7121 1297.98 47.5436 1299.51Z" fill="white" stroke="#211414" stroke-width="10.335"/>
</g>
<defs>
<filter id="filter0_n_16_4" x="0" y="0" width="1080" height="1350" filterUnits="userSpaceOnUse" color-interpolation-filters="sRGB">
<feFlood flood-opacity="0" result="BackgroundImageFix"/>
<feBlend mode="normal" in="SourceGraphic" in2="BackgroundImageFix" result="shape"/>
<feTurbulence type="fractalNoise" baseFrequency="0.3333333432674408 0.19607843458652496" stitchTiles="stitch" numOctaves="3" result="noise" seed="8878" />
<feColorMatrix in="noise" type="luminanceToAlpha" result="alphaNoise" />
<feComponentTransfer in="alphaNoise" result="coloredNoise1">
<feFuncA type="discrete" tableValues="0 0 0 0 0 0 0 0 0 0 0 0 0 0 0 0 1 1 1 1 1 1 1 1 1 1 1 1 1 1 1 1 1 1 0 0 0 0 0 0 0 0 0 0 0 0 0 0 0 0 0 0 0 0 0 0 0 0 0 0 0 0 0 0 0 0 0 0 0 0 0 0 0 0 0 0 0 0 0 0 0 0 0 0 0 0 0 0 0 0 0 0 0 0 0 0 0 0 0 0 "/>
</feComponentTransfer>
<feComposite operator="in" in2="shape" in="coloredNoise1" result="noise1Clipped" />
<feComponentTransfer in="alphaNoise" result="coloredNoise2">
<feFuncA type="discrete" tableValues="0 0 0 0 0 0 0 0 0 0 0 0 0 0 0 0 0 0 0 0 0 0 0 0 0 0 0 0 0 0 0 0 0 0 0 0 0 0 0 0 0 0 0 0 0 0 0 0 0 0 0 0 0 0 0 0 0 0 0 0 0 0 0 0 0 0 1 1 1 1 1 1 1 1 1 1 1 1 1 1 1 1 1 1 0 0 0 0 0 0 0 0 0 0 0 0 0 0 0 0 "/>
</feComponentTransfer>
<feComposite operator="in" in2="shape" in="coloredNoise2" result="noise2Clipped" />
<feFlood flood-color="#C6B2FF" result="color1Flood" />
<feComposite operator="in" in2="noise1Clipped" in="color1Flood" result="color1" />
<feFlood flood-color="#292938" result="color2Flood" />
<feComposite operator="in" in2="noise2Clipped" in="color2Flood" result="color2" />
<feMerge result="effect1_noise_16_4">
<feMergeNode in="shape" />
<feMergeNode in="color1" />
<feMergeNode in="color2" />
</feMerge>
</filter>
<filter id="filter1_n_16_4" x="127" y="157" width="826" height="1036" filterUnits="userSpaceOnUse" color-interpolation-filters="sRGB">
<feFlood flood-opacity="0" result="BackgroundImageFix"/>
<feBlend mode="normal" in="SourceGraphic" in2="BackgroundImageFix" result="shape"/>
<feTurbulence type="fractalNoise" baseFrequency="0.3333333432674408 0.19607843458652496" stitchTiles="stitch" numOctaves="3" result="noise" seed="8878" />
<feColorMatrix in="noise" type="luminanceToAlpha" result="alphaNoise" />
<feComponentTransfer in="alphaNoise" result="coloredNoise1">
<feFuncA type="discrete" tableValues="0 0 0 0 0 0 0 0 0 0 0 0 0 0 0 0 0 0 0 0 0 0 0 0 1 1 0 0 0 0 0 0 0 0 0 0 0 0 0 0 0 0 0 0 0 0 0 0 0 0 0 0 0 0 0 0 0 0 0 0 0 0 0 0 0 0 0 0 0 0 0 0 0 0 0 0 0 0 0 0 0 0 0 0 0 0 0 0 0 0 0 0 0 0 0 0 0 0 0 0 "/>
</feComponentTransfer>
<feComposite operator="in" in2="shape" in="coloredNoise1" result="noise1Clipped" />
<feComponentTransfer in="alphaNoise" result="coloredNoise2">
<feFuncA type="discrete" tableValues="0 0 0 0 0 0 0 0 0 0 0 0 0 0 0 0 0 0 0 0 0 0 0 0 0 0 0 0 0 0 0 0 0 0 0 0 0 0 0 0 0 0 0 0 0 0 0 0 0 0 0 0 0 0 0 0 0 0 0 0 0 0 0 0 0 0 0 0 0 0 0 0 0 0 1 1 0 0 0 0 0 0 0 0 0 0 0 0 0 0 0 0 0 0 0 0 0 0 0 0 "/>
</feComponentTransfer>
<feComposite operator="in" in2="shape" in="coloredNoise2" result="noise2Clipped" />
<feFlood flood-color="#474747" result="color1Flood" />
<feComposite operator="in" in2="noise1Clipped" in="color1Flood" result="color1" />
<feFlood flood-color="#828282" result="color2Flood" />
<feComposite operator="in" in2="noise2Clipped" in="color2Flood" result="color2" />
<feMerge result="effect1_noise_16_4">
<feMergeNode in="shape" />
<feMergeNode in="color1" />
<feMergeNode in="color2" />
</feMerge>
</filter>
<clipPath id="clip0_16_4">
<rect width="1080" height="1350" fill="white"/>
</clipPath>
</defs>
</svg>
