<svg width="319" height="432" viewBox="0 0 319 432" fill="none" xmlns="http://www.w3.org/2000/svg">
<mask id="path-2-outside-1_19_110" maskUnits="userSpaceOnUse" x="-81.2389" y="124.117" width="163" height="195" fill="black">
<rect fill="white" x="-81.2389" y="124.117" width="163" height="195"/>
<path d="M71.5512 180.137C71.5512 183.341 68.0464 185.477 64.8792 184.991C63.8187 184.828 62.7324 184.744 61.6264 184.744C49.8801 184.744 40.3578 194.266 40.3578 206.012C40.358 217.759 49.8802 227.281 61.6264 227.281C62.7326 227.281 63.8189 227.196 64.8795 227.033C68.0466 226.546 71.5512 228.682 71.5512 231.886L71.5512 272.653C71.5512 275.003 69.6467 276.907 67.2975 276.907H26.5304C23.3261 276.907 21.1906 280.412 21.6775 283.579C21.8406 284.64 21.9252 285.726 21.9252 286.833C21.9251 298.579 12.4027 308.101 0.656647 308.101C-11.0896 308.101 -20.6118 298.579 -20.6119 286.833C-20.6119 285.726 -20.5274 284.64 -20.3644 283.579C-19.878 280.412 -22.0137 276.907 -25.2181 276.907H-65.9852C-68.3344 276.907 -70.2389 275.003 -70.2389 272.653L-70.2389 139.371C-70.2389 137.021 -68.3344 135.117 -65.9852 135.117H67.2975C69.6467 135.117 71.5512 137.021 71.5512 139.371V180.137Z"/>
</mask>
<path d="M71.5512 180.137C71.5512 183.341 68.0464 185.477 64.8792 184.991C63.8187 184.828 62.7324 184.744 61.6264 184.744C49.8801 184.744 40.3578 194.266 40.3578 206.012C40.358 217.759 49.8802 227.281 61.6264 227.281C62.7326 227.281 63.8189 227.196 64.8795 227.033C68.0466 226.546 71.5512 228.682 71.5512 231.886L71.5512 272.653C71.5512 275.003 69.6467 276.907 67.2975 276.907H26.5304C23.3261 276.907 21.1906 280.412 21.6775 283.579C21.8406 284.64 21.9252 285.726 21.9252 286.833C21.9251 298.579 12.4027 308.101 0.656647 308.101C-11.0896 308.101 -20.6118 298.579 -20.6119 286.833C-20.6119 285.726 -20.5274 284.64 -20.3644 283.579C-19.878 280.412 -22.0137 276.907 -25.2181 276.907H-65.9852C-68.3344 276.907 -70.2389 275.003 -70.2389 272.653L-70.2389 139.371C-70.2389 137.021 -68.3344 135.117 -65.9852 135.117H67.2975C69.6467 135.117 71.5512 137.021 71.5512 139.371V180.137Z" fill="#868EFF"/>
<path d="M61.6264 184.744L61.6265 174.611L61.6264 174.611V184.744ZM40.3578 206.012H30.2245V206.013L40.3578 206.012ZM61.6264 227.281V237.414H61.6265L61.6264 227.281ZM21.9252 286.833L32.0585 286.833V286.833H21.9252ZM0.656647 308.101V318.235H0.656799L0.656647 308.101ZM-20.6119 286.833H-30.7452L-30.7452 286.833L-20.6119 286.833ZM21.6775 283.579L31.6932 282.039L21.6775 283.579ZM64.8795 227.033L63.3397 217.018L64.8795 227.033ZM71.5512 231.886H81.6845H71.5512ZM71.5512 272.653H61.4178H71.5512ZM64.8792 184.991L63.3418 195.007L64.8792 184.991ZM64.8792 184.991L66.4167 174.975C64.8492 174.734 63.249 174.611 61.6265 174.611L61.6264 184.744L61.6263 194.877C62.2159 194.877 62.7883 194.922 63.3418 195.007L64.8792 184.991ZM61.6264 184.744V174.611C44.2836 174.611 30.2245 188.67 30.2245 206.012H40.3578H50.4911C50.4911 199.863 55.4766 194.877 61.6264 194.877V184.744ZM40.3578 206.012L30.2245 206.013C30.2248 223.355 44.2835 237.414 61.6264 237.414V227.281V217.148C55.4769 217.148 50.4913 212.162 50.4911 206.012L40.3578 206.012ZM61.6264 227.281L61.6265 237.414C63.2502 237.414 64.8513 237.29 66.4193 237.049L64.8795 227.033L63.3397 217.018C62.7866 217.103 62.2149 217.148 61.6263 217.148L61.6264 227.281ZM71.5512 231.886H61.4178V272.653H71.5512H81.6845V231.886H71.5512ZM67.2975 276.907V266.774H26.5304V276.907V287.04H67.2975V276.907ZM21.6775 283.579L11.6618 285.118C11.7469 285.672 11.7919 286.244 11.7919 286.833H21.9252H32.0585C32.0585 285.209 31.9343 283.607 31.6932 282.039L21.6775 283.579ZM21.9252 286.833L11.7919 286.833C11.7918 292.982 6.80624 297.968 0.656494 297.968L0.656647 308.101L0.656799 318.235C17.9992 318.234 32.0583 304.175 32.0585 286.833L21.9252 286.833ZM0.656647 308.101V297.968C-5.49297 297.968 -10.4785 292.983 -10.4786 286.833L-20.6119 286.833L-30.7452 286.833C-30.745 304.175 -16.6862 318.235 0.656647 318.235V308.101ZM-20.6119 286.833H-10.4786C-10.4786 286.243 -10.4336 285.671 -10.3486 285.117L-20.3644 283.579L-30.3803 282.041C-30.6211 283.609 -30.7452 285.209 -30.7452 286.833H-20.6119ZM-25.2181 276.907V266.774H-65.9852L-65.9852 276.907V287.04H-25.2181V276.907ZM-70.2389 272.653H-60.1055L-60.1055 139.371H-70.2389H-80.3722V272.653H-70.2389ZM-65.9852 135.117V145.25H67.2975V135.117V124.984H-65.9852V135.117ZM71.5512 139.371H61.4178V180.137H71.5512H81.6845V139.371H71.5512ZM67.2975 135.117V145.25C64.0502 145.25 61.4178 142.618 61.4178 139.371H71.5512H81.6845C81.6845 131.425 75.2432 124.984 67.2975 124.984V135.117ZM-70.2389 139.371H-60.1055C-60.1055 142.618 -62.7379 145.25 -65.9852 145.25V135.117V124.984C-73.9309 124.984 -80.3722 131.425 -80.3722 139.371H-70.2389ZM26.5304 276.907V266.774C20.9062 266.774 16.7072 269.91 14.3664 273.319C12.0838 276.643 11.0132 280.899 11.6618 285.118L21.6775 283.579L31.6932 282.039C31.8549 283.091 31.6086 284.012 31.0731 284.792C30.4794 285.656 28.9503 287.04 26.5304 287.04V276.907ZM64.8795 227.033L66.4193 237.049C65.3674 237.211 64.4466 236.964 63.6667 236.429C62.802 235.835 61.4178 234.306 61.4178 231.886H71.5512H81.6845C81.6845 226.262 78.5481 222.063 75.1393 219.722C71.8153 217.439 67.5587 216.369 63.3397 217.018L64.8795 227.033ZM-20.3644 283.579L-10.3486 285.117C-9.70053 280.898 -10.7715 276.642 -13.0541 273.318C-15.3949 269.91 -19.5938 266.774 -25.2181 266.774V276.907V287.04C-27.638 287.04 -29.1668 285.656 -29.7602 284.792C-30.2955 284.013 -30.5419 283.092 -30.3803 282.041L-20.3644 283.579ZM71.5512 272.653H61.4178C61.4178 269.406 64.0502 266.774 67.2975 266.774V276.907V287.04C75.2432 287.04 81.6845 280.599 81.6845 272.653H71.5512ZM-65.9852 276.907L-65.9852 266.774C-62.7379 266.774 -60.1055 269.406 -60.1055 272.653H-70.2389H-80.3722C-80.3722 280.599 -73.9309 287.04 -65.9852 287.04V276.907ZM64.8792 184.991L63.3418 195.007C67.5607 195.655 71.8168 194.583 75.1401 192.301C78.548 189.96 81.6845 185.761 81.6845 180.137H71.5512H61.4178C61.4178 177.717 62.802 176.188 63.6657 175.595C64.4448 175.06 65.3649 174.814 66.4167 174.975L64.8792 184.991Z" fill="#111111" mask="url(#path-2-outside-1_19_110)"/>
<mask id="path-5-outside-2_19_110" maskUnits="userSpaceOnUse" x="-81.2388" y="265.907" width="195" height="163" fill="black">
<rect fill="white" x="-81.2388" y="265.907" width="195" height="163"/>
<path d="M71.5512 321.928C71.5512 325.132 75.0561 327.268 78.2233 326.782C79.2841 326.619 80.3707 326.534 81.477 326.534C93.2232 326.534 102.746 336.056 102.746 347.803C102.745 359.549 93.2231 369.071 81.477 369.071C80.3705 369.071 79.2839 368.987 78.2231 368.823C75.0559 368.336 71.5512 370.471 71.5512 373.676V414.444C71.5512 416.793 69.6468 418.697 67.2975 418.697L-65.9851 418.697C-68.3344 418.697 -70.2388 416.793 -70.2388 414.444L-70.2388 281.161C-70.2388 278.812 -68.3344 276.907 -65.9851 276.907H-26.1435C-23.0221 276.907 -20.9074 280.232 -21.2939 283.329C-21.4026 284.2 -21.4585 285.086 -21.4585 285.986C-21.4585 297.733 -11.9362 307.255 -0.18998 307.255C11.5563 307.255 21.0785 297.733 21.0786 285.986C21.0786 285.086 21.0226 284.2 20.914 283.329C20.5274 280.232 22.6422 276.907 25.7635 276.907L67.2975 276.907C69.6468 276.907 71.5512 278.812 71.5512 281.161V321.928Z"/>
</mask>
<path d="M71.5512 321.928C71.5512 325.132 75.0561 327.268 78.2233 326.782C79.2841 326.619 80.3707 326.534 81.477 326.534C93.2232 326.534 102.746 336.056 102.746 347.803C102.745 359.549 93.2231 369.071 81.477 369.071C80.3705 369.071 79.2839 368.987 78.2231 368.823C75.0559 368.336 71.5512 370.471 71.5512 373.676V414.444C71.5512 416.793 69.6468 418.697 67.2975 418.697L-65.9851 418.697C-68.3344 418.697 -70.2388 416.793 -70.2388 414.444L-70.2388 281.161C-70.2388 278.812 -68.3344 276.907 -65.9851 276.907H-26.1435C-23.0221 276.907 -20.9074 280.232 -21.2939 283.329C-21.4026 284.2 -21.4585 285.086 -21.4585 285.986C-21.4585 297.733 -11.9362 307.255 -0.18998 307.255C11.5563 307.255 21.0785 297.733 21.0786 285.986C21.0786 285.086 21.0226 284.2 20.914 283.329C20.5274 280.232 22.6422 276.907 25.7635 276.907L67.2975 276.907C69.6468 276.907 71.5512 278.812 71.5512 281.161V321.928Z" fill="#FF8686"/>
<path d="M81.477 326.534L81.4771 316.401H81.477V326.534ZM102.746 347.803L112.879 347.803V347.803H102.746ZM81.477 369.071V379.205H81.4771L81.477 369.071ZM-21.4585 285.986H-31.5919L-31.5919 285.986L-21.4585 285.986ZM-0.18998 307.255L-0.190002 317.388H-0.18998V307.255ZM21.0786 285.986L31.2119 285.986V285.986H21.0786ZM20.914 283.329L10.8587 284.584L20.914 283.329ZM-21.2939 283.329L-11.2386 284.584L-21.2939 283.329ZM-65.9851 418.697L-65.9851 408.564L-65.9851 418.697ZM78.2231 368.823L79.7638 358.808L78.2231 368.823ZM67.2975 418.697V428.831V418.697ZM78.2233 326.782L79.7617 336.797C80.3153 336.712 80.8876 336.667 81.477 336.667V326.534V316.401C79.8537 316.401 78.2529 316.525 76.6849 316.766L78.2233 326.782ZM81.477 326.534L81.4769 336.667C87.6268 336.668 92.6122 341.653 92.6122 347.803H102.746H112.879C112.879 330.46 98.8196 316.401 81.4771 316.401L81.477 326.534ZM102.746 347.803L92.6122 347.803C92.6121 353.952 87.6265 358.938 81.4769 358.938L81.477 369.071L81.4771 379.205C98.8197 379.204 112.879 365.145 112.879 347.803L102.746 347.803ZM81.477 369.071V358.938C80.8885 358.938 80.3169 358.893 79.7638 358.808L78.2231 368.823L76.6824 378.839C78.2508 379.08 79.8526 379.205 81.477 379.205V369.071ZM71.5512 373.676H61.4179V414.444H71.5512H81.6846V373.676H71.5512ZM67.2975 418.697V408.564H-65.9851L-65.9851 418.697V428.831H67.2975V418.697ZM-70.2388 414.444H-60.1055L-60.1055 281.161H-70.2388H-80.3721V414.444H-70.2388ZM-65.9851 276.907V287.041H-26.1435V276.907V266.774H-65.9851V276.907ZM-21.2939 283.329L-31.3493 282.075C-31.5097 283.36 -31.5919 284.666 -31.5919 285.986H-21.4585H-11.3252C-11.3252 285.507 -11.2954 285.04 -11.2386 284.584L-21.2939 283.329ZM-21.4585 285.986L-31.5919 285.986C-31.5918 303.329 -17.5327 317.388 -0.190002 317.388L-0.18998 307.255L-0.189957 297.122C-6.33971 297.122 -11.3252 292.136 -11.3252 285.986L-21.4585 285.986ZM-0.18998 307.255V317.388C17.1528 317.388 31.2118 303.329 31.2119 285.986L21.0786 285.986L10.9452 285.986C10.9452 292.136 5.95975 297.122 -0.18998 297.122V307.255ZM21.0786 285.986H31.2119C31.2119 284.666 31.1297 283.36 30.9693 282.075L20.914 283.329L10.8587 284.584C10.9155 285.04 10.9452 285.507 10.9452 285.986H21.0786ZM25.7635 276.907V287.041H67.2975V276.907V266.774H25.7635V276.907ZM71.5512 281.161H61.4179V321.928H71.5512H81.6846V281.161H71.5512ZM67.2975 276.907V287.041C64.0503 287.041 61.4179 284.408 61.4179 281.161H71.5512H81.6846C81.6846 273.215 75.2433 266.774 67.2975 266.774V276.907ZM20.914 283.329L30.9693 282.075C31.0987 283.111 30.8411 284.046 30.2683 284.848C29.6349 285.734 28.1047 287.041 25.7635 287.041V276.907V266.774C20.301 266.774 16.1528 269.742 13.7783 273.066C11.4644 276.304 10.3428 280.45 10.8587 284.584L20.914 283.329ZM-26.1435 276.907V287.041C-28.4846 287.041 -30.0148 285.734 -30.6483 284.848C-31.2211 284.046 -31.4786 283.111 -31.3493 282.075L-21.2939 283.329L-11.2386 284.584C-10.7227 280.45 -11.8443 276.304 -14.1583 273.066C-16.5328 269.742 -20.681 266.774 -26.1435 266.774V276.907ZM-70.2388 281.161H-60.1055C-60.1055 284.408 -62.7379 287.041 -65.9851 287.041V276.907V266.774C-73.9308 266.774 -80.3721 273.215 -80.3721 281.161H-70.2388ZM-65.9851 418.697L-65.9851 408.564C-62.7379 408.564 -60.1055 411.196 -60.1055 414.444H-70.2388H-80.3721C-80.3721 422.389 -73.9309 428.831 -65.9851 428.831V418.697ZM78.2231 368.823L79.7638 358.808C75.5447 358.159 71.2878 359.229 67.9636 361.511C64.5545 363.852 61.4179 368.051 61.4179 373.676H71.5512H81.6846C81.6846 376.096 80.3003 377.625 79.4353 378.219C78.6552 378.755 77.7342 379.001 76.6824 378.839L78.2231 368.823ZM71.5512 414.444H61.4179C61.4179 411.196 64.0503 408.564 67.2975 408.564V418.697V428.831C75.2432 428.831 81.6846 422.389 81.6846 414.444H71.5512ZM78.2233 326.782L76.6849 316.766C77.7367 316.604 78.657 316.851 79.4363 317.386C80.3004 317.979 81.6846 319.508 81.6846 321.928H71.5512H61.4179C61.4179 327.552 64.5545 331.751 67.9628 334.092C71.2863 336.375 75.5427 337.446 79.7617 336.797L78.2233 326.782Z" fill="#111111" mask="url(#path-5-outside-2_19_110)"/>
<mask id="path-8-outside-3_19_110" maskUnits="userSpaceOnUse" x="60.5515" y="234.713" width="163" height="195" fill="black">
<rect fill="white" x="60.5515" y="234.713" width="163" height="195"/>
<path d="M142.447 245.713C154.193 245.713 163.715 255.235 163.716 266.982C163.716 268.088 163.631 269.175 163.468 270.235C162.981 273.403 165.116 276.907 168.321 276.907H209.088C211.437 276.907 213.342 278.812 213.342 281.161L213.342 414.444C213.342 416.793 211.437 418.697 209.088 418.697H75.8052C73.4559 418.697 71.5515 416.793 71.5515 414.444L71.5515 373.676C71.5515 370.471 75.0562 368.336 78.2234 368.823C79.2842 368.986 80.3708 369.07 81.4773 369.07C93.2234 369.07 102.746 359.548 102.746 347.802C102.746 336.056 93.2232 326.534 81.4773 326.533C80.3708 326.533 79.2841 326.618 78.2233 326.781C75.0561 327.268 71.5515 325.133 71.5515 321.928L71.5515 281.161C71.5515 278.812 73.4559 276.907 75.8052 276.907H116.572C119.777 276.907 121.912 273.403 121.426 270.235C121.263 269.175 121.178 268.088 121.178 266.982C121.179 255.235 130.701 245.713 142.447 245.713Z"/>
</mask>
<path d="M142.447 245.713C154.193 245.713 163.715 255.235 163.716 266.982C163.716 268.088 163.631 269.175 163.468 270.235C162.981 273.403 165.116 276.907 168.321 276.907H209.088C211.437 276.907 213.342 278.812 213.342 281.161L213.342 414.444C213.342 416.793 211.437 418.697 209.088 418.697H75.8052C73.4559 418.697 71.5515 416.793 71.5515 414.444L71.5515 373.676C71.5515 370.471 75.0562 368.336 78.2234 368.823C79.2842 368.986 80.3708 369.07 81.4773 369.07C93.2234 369.07 102.746 359.548 102.746 347.802C102.746 336.056 93.2232 326.534 81.4773 326.533C80.3708 326.533 79.2841 326.618 78.2233 326.781C75.0561 327.268 71.5515 325.133 71.5515 321.928L71.5515 281.161C71.5515 278.812 73.4559 276.907 75.8052 276.907H116.572C119.777 276.907 121.912 273.403 121.426 270.235C121.263 269.175 121.178 268.088 121.178 266.982C121.179 255.235 130.701 245.713 142.447 245.713Z" fill="#FFAC86"/>
<path d="M142.447 245.713L142.447 235.58H142.447V245.713ZM163.716 266.982H173.849V266.981L163.716 266.982ZM81.4773 369.07V379.204H81.4775L81.4773 369.07ZM102.746 347.802H112.879L112.879 347.802L102.746 347.802ZM81.4773 326.533L81.4775 316.4H81.4773V326.533ZM121.178 266.982L111.045 266.981V266.982H121.178ZM121.426 270.235L111.41 271.774L121.426 270.235ZM78.2233 326.781L76.6835 316.765L78.2233 326.781ZM213.342 414.444H203.208H213.342ZM163.468 270.235L153.452 268.696L163.468 270.235ZM142.447 245.713L142.447 255.846C148.597 255.846 153.582 260.832 153.582 266.982L163.716 266.982L173.849 266.981C173.849 249.639 159.79 235.58 142.447 235.58L142.447 245.713ZM163.716 266.982H153.582C153.582 267.57 153.537 268.142 153.452 268.696L163.468 270.235L173.484 271.775C173.725 270.207 173.849 268.605 173.849 266.982H163.716ZM168.321 276.907V287.041H209.088V276.907V266.774H168.321V276.907ZM213.342 281.161H203.208V414.444H213.342H223.475V281.161H213.342ZM209.088 418.697V408.564H75.8052V418.697V428.831H209.088V418.697ZM71.5515 414.444H81.6848L81.6848 373.676H71.5515H61.4182V414.444H71.5515ZM78.2234 368.823L76.6839 378.838C78.2521 379.079 79.8534 379.204 81.4773 379.204V369.07V358.937C80.8883 358.937 80.3163 358.892 79.763 358.807L78.2234 368.823ZM81.4773 369.07L81.4775 379.204C98.8197 379.203 112.879 365.145 112.879 347.802H102.746H92.6125C92.6125 353.951 87.627 358.937 81.4771 358.937L81.4773 369.07ZM102.746 347.802L112.879 347.802C112.879 330.459 98.8198 316.4 81.4775 316.4L81.4773 326.533L81.4771 336.667C87.6267 336.667 92.6124 341.652 92.6125 347.802L102.746 347.802ZM81.4773 326.533V316.4C79.8533 316.4 78.2518 316.524 76.6835 316.765L78.2233 326.781L79.7631 336.797C80.3164 336.712 80.8884 336.667 81.4773 336.667V326.533ZM71.5515 321.928H81.6848V281.161H71.5515H61.4182V321.928H71.5515ZM75.8052 276.907V287.041H116.572V276.907V266.774H75.8052V276.907ZM121.426 270.235L131.442 268.697C131.357 268.143 131.312 267.571 131.312 266.982H121.178H111.045C111.045 268.605 111.169 270.206 111.41 271.774L121.426 270.235ZM121.178 266.982L131.312 266.982C131.312 260.832 136.297 255.846 142.447 255.846V245.713V235.58C125.104 235.58 111.045 249.639 111.045 266.981L121.178 266.982ZM116.572 276.907V287.041C122.197 287.041 126.395 283.904 128.736 280.496C131.019 277.172 132.09 272.916 131.442 268.697L121.426 270.235L111.41 271.774C111.248 270.722 111.495 269.802 112.03 269.022C112.624 268.158 114.152 266.774 116.572 266.774V276.907ZM71.5515 281.161H81.6848C81.6848 284.408 79.0524 287.041 75.8052 287.041V276.907V266.774C67.8595 266.774 61.4182 273.215 61.4182 281.161H71.5515ZM78.2233 326.781L76.6835 316.765C77.7355 316.604 78.6563 316.85 79.4361 317.385C80.3006 317.979 81.6848 319.508 81.6848 321.928H71.5515H61.4182C61.4182 327.552 64.5547 331.751 67.9633 334.092C71.2873 336.375 75.544 337.445 79.7631 336.797L78.2233 326.781ZM71.5515 373.676H81.6848C81.6848 376.096 80.3006 377.625 79.4361 378.218C78.6564 378.754 77.7357 379 76.6839 378.838L78.2234 368.823L79.763 358.807C75.544 358.159 71.2873 359.229 67.9634 361.512C64.5548 363.852 61.4182 368.051 61.4182 373.676H71.5515ZM75.8052 418.697V408.564C79.0524 408.564 81.6848 411.196 81.6848 414.444H71.5515H61.4182C61.4182 422.389 67.8594 428.831 75.8052 428.831V418.697ZM213.342 414.444H203.208C203.208 411.196 205.841 408.564 209.088 408.564V418.697V428.831C217.034 428.831 223.475 422.389 223.475 414.444H213.342ZM209.088 276.907V287.041C205.841 287.041 203.208 284.408 203.208 281.161H213.342H223.475C223.475 273.215 217.034 266.774 209.088 266.774V276.907ZM163.468 270.235L153.452 268.696C152.804 272.915 153.874 277.172 156.157 280.495C158.497 283.904 162.697 287.041 168.321 287.041V276.907V266.774C170.741 266.774 172.27 268.158 172.863 269.023C173.399 269.802 173.645 270.723 173.484 271.775L163.468 270.235Z" fill="#111111" mask="url(#path-8-outside-3_19_110)"/>
<mask id="path-11-outside-4_19_110" maskUnits="userSpaceOnUse" x="61.5918" y="2.47417" width="254.112" height="250.897" fill="black">
<rect fill="white" x="61.5918" y="2.47417" width="254.112" height="250.897"/>
<path d="M297.906 121.917C299.445 123.692 299.254 126.379 297.479 127.918L266.677 154.624C264.256 156.723 260.346 155.474 258.639 152.762C258.068 151.854 257.42 150.978 256.695 150.143C249 141.268 235.568 140.311 226.693 148.006C217.818 155.701 216.861 169.133 224.556 178.008C225.281 178.844 226.056 179.609 226.874 180.304C229.317 182.378 230 186.424 227.578 188.524L196.777 215.23C195.002 216.769 192.315 216.577 190.776 214.802L164.07 184C161.971 181.579 157.924 182.262 155.85 184.705C155.156 185.523 154.39 186.299 153.554 187.023C144.679 194.718 131.246 193.761 123.552 184.887C115.857 176.012 116.814 162.579 125.688 154.884C126.524 154.16 127.401 153.512 128.309 152.94C131.021 151.233 132.27 147.323 130.17 144.902L103.464 114.1C101.925 112.325 102.117 109.639 103.892 108.1L204.594 20.788C206.369 19.249 209.055 19.4404 210.594 21.2154L297.906 121.917Z"/>
</mask>
<path d="M297.906 121.917C299.445 123.692 299.254 126.379 297.479 127.918L266.677 154.624C264.256 156.723 260.346 155.474 258.639 152.762C258.068 151.854 257.42 150.978 256.695 150.143C249 141.268 235.568 140.311 226.693 148.006C217.818 155.701 216.861 169.133 224.556 178.008C225.281 178.844 226.056 179.609 226.874 180.304C229.317 182.378 230 186.424 227.578 188.524L196.777 215.23C195.002 216.769 192.315 216.577 190.776 214.802L164.07 184C161.971 181.579 157.924 182.262 155.85 184.705C155.156 185.523 154.39 186.299 153.554 187.023C144.679 194.718 131.246 193.761 123.552 184.887C115.857 176.012 116.814 162.579 125.688 154.884C126.524 154.16 127.401 153.512 128.309 152.94C131.021 151.233 132.27 147.323 130.17 144.902L103.464 114.1C101.925 112.325 102.117 109.639 103.892 108.1L204.594 20.788C206.369 19.249 209.055 19.4404 210.594 21.2154L297.906 121.917Z" fill="#7AA0FF"/>
<path d="M256.695 150.143L264.352 143.504L264.351 143.504L256.695 150.143ZM226.693 148.006L220.055 140.35L220.055 140.35L226.693 148.006ZM224.556 178.008L216.9 184.646L216.9 184.646L224.556 178.008ZM153.554 187.023L160.192 194.68L160.192 194.68L153.554 187.023ZM123.552 184.887L115.895 191.525L115.896 191.525L123.552 184.887ZM125.688 154.884L119.05 147.228L119.05 147.228L125.688 154.884ZM155.85 184.705L163.575 191.262L155.85 184.705ZM258.639 152.762L267.215 147.364L258.639 152.762ZM128.309 152.94L122.91 144.365L128.309 152.94ZM297.479 127.918L290.84 120.262L260.039 146.968L266.677 154.624L273.315 162.28L304.117 135.574L297.479 127.918ZM258.639 152.762L267.215 147.364C266.37 146.021 265.415 144.731 264.352 143.504L256.695 150.143L249.039 156.781C249.425 157.226 249.766 157.688 250.064 158.161L258.639 152.762ZM256.695 150.143L264.351 143.504C252.99 130.401 233.158 128.989 220.055 140.35L226.693 148.006L233.331 155.662C237.978 151.633 245.01 152.134 249.039 156.781L256.695 150.143ZM226.693 148.006L220.055 140.35C206.952 151.711 205.539 171.543 216.9 184.646L224.556 178.008L232.212 171.37C228.184 166.724 228.685 159.691 233.331 155.662L226.693 148.006ZM224.556 178.008L216.9 184.646C217.964 185.873 219.106 187.002 220.316 188.028L226.874 180.304L233.433 172.579C233.007 172.217 232.598 171.815 232.212 171.37L224.556 178.008ZM227.578 188.524L220.94 180.867L190.138 207.573L196.777 215.23L203.415 222.886L234.217 196.18L227.578 188.524ZM190.776 214.802L198.433 208.164L171.726 177.362L164.07 184L156.413 190.638L183.12 221.441L190.776 214.802ZM155.85 184.705L148.125 178.147C147.763 178.573 147.36 178.982 146.916 179.367L153.554 187.023L160.192 194.68C161.42 193.616 162.548 192.472 163.575 191.262L155.85 184.705ZM153.554 187.023L146.916 179.367C142.269 183.396 135.236 182.895 131.208 178.248L123.552 184.887L115.896 191.525C127.257 204.628 147.089 206.04 160.192 194.68L153.554 187.023ZM123.552 184.887L131.208 178.249C127.179 173.602 127.68 166.569 132.327 162.541L125.688 154.884L119.05 147.228C105.947 158.589 104.534 178.422 115.895 191.525L123.552 184.887ZM125.688 154.884L132.327 162.541C132.772 162.155 133.234 161.814 133.708 161.515L128.309 152.94L122.91 144.365C121.568 145.21 120.277 146.165 119.05 147.228L125.688 154.884ZM130.17 144.902L137.827 138.264L111.121 107.462L103.464 114.1L95.8081 120.739L122.514 151.54L130.17 144.902ZM103.892 108.1L110.53 115.756L211.232 28.4443L204.594 20.788L197.956 13.1317L97.2535 100.444L103.892 108.1ZM210.594 21.2154L202.938 27.8536L290.25 128.556L297.906 121.917L305.562 115.279L218.25 14.5771L210.594 21.2154ZM204.594 20.788L211.232 28.4443C208.779 30.5715 205.065 30.307 202.938 27.8536L210.594 21.2154L218.25 14.5771C213.045 8.57371 203.959 7.92657 197.956 13.1317L204.594 20.788ZM164.07 184L171.726 177.362C168.042 173.112 162.921 171.994 158.812 172.459C154.805 172.912 150.887 174.892 148.125 178.147L155.85 184.705L163.575 191.262C162.887 192.074 162.029 192.491 161.089 192.597C160.046 192.715 157.999 192.467 156.413 190.638L164.07 184ZM196.777 215.23L190.138 207.573C192.592 205.446 196.305 205.711 198.433 208.164L190.776 214.802L183.12 221.441C188.325 227.444 197.411 228.091 203.415 222.886L196.777 215.23ZM103.464 114.1L111.121 107.462C113.248 109.916 112.983 113.629 110.53 115.756L103.892 108.1L97.2535 100.444C91.2501 105.649 90.6029 114.735 95.8081 120.739L103.464 114.1ZM266.677 154.624L260.039 146.968C261.867 145.382 263.929 145.427 264.944 145.691C265.859 145.929 266.648 146.463 267.215 147.364L258.639 152.762L250.064 158.161C252.338 161.773 255.935 164.288 259.837 165.304C263.839 166.345 269.066 165.965 273.315 162.28L266.677 154.624ZM226.874 180.304L220.316 188.028C219.505 187.34 219.087 186.483 218.981 185.542C218.863 184.5 219.112 182.452 220.94 180.867L227.578 188.524L234.217 196.18C238.466 192.496 239.584 187.375 239.12 183.266C238.667 179.259 236.687 175.342 233.433 172.579L226.874 180.304ZM128.309 152.94L133.708 161.515C137.32 159.241 139.834 155.644 140.85 151.742C141.892 147.74 141.511 142.513 137.827 138.264L130.17 144.902L122.514 151.54C120.929 149.712 120.973 147.65 121.237 146.636C121.476 145.721 122.009 144.932 122.91 144.365L128.309 152.94ZM297.479 127.918L304.117 135.574C310.12 130.369 310.767 121.283 305.562 115.279L297.906 121.917L290.25 128.556C288.123 126.102 288.387 122.389 290.84 120.262L297.479 127.918Z" fill="#111111" mask="url(#path-11-outside-4_19_110)"/>
</svg>
